<svg version="1.1" id="Layer_1" xmlns="http://www.w3.org/2000/svg" xmlns:xlink="http://www.w3.org/1999/xlink" x="0px" y="0px"
	 width="100%" viewBox="0 0 500 500" enable-background="new 0 0 500 500" xml:space="preserve">
<path fill="#010000" opacity="1.000000" stroke="none" 
	d="
M501.000000,187.000000 
	C501.000000,290.666656 500.978180,393.833313 501.095459,496.999817 
	C501.099365,500.423737 500.423828,501.096954 497.000000,501.094696 
	C333.000092,500.986237 169.000137,500.986206 5.000256,501.094635 
	C1.576958,501.096893 0.903020,500.424194 0.905285,497.000122 
	C1.013782,333.000214 1.013754,169.000259 0.905355,5.000375 
	C0.903093,1.577355 1.575405,0.903005 4.999748,0.905270 
	C168.999634,1.013778 332.999603,1.013757 496.999512,0.905371 
	C500.422272,0.903109 501.104523,1.574041 501.096924,4.999781 
	C500.963043,65.499626 501.000000,125.999855 501.000000,187.000000 
z"/>
<path fill="#7C0D0B" opacity="1.000000" stroke="none" 
	d="
M264.705444,256.930298 
	C258.656586,257.507568 253.616684,260.550232 247.486435,260.111237 
	C244.024078,261.558807 240.897430,261.056213 237.359589,260.384338 
	C234.574570,260.032166 232.203873,259.910919 229.386993,259.804321 
	C228.775848,259.988556 228.610870,260.158173 228.360840,259.983215 
	C225.423752,258.399078 222.571701,257.159515 219.371277,255.792313 
	C218.805054,255.621521 218.587219,255.578369 218.218842,255.238098 
	C218.068298,254.940979 218.018600,255.001617 218.035736,254.967255 
	C216.667007,254.258423 215.705048,253.267242 215.701340,251.295807 
	C215.818329,244.652145 216.007050,238.346680 215.769348,232.057343 
	C215.626114,228.266891 217.170441,226.900772 220.725739,227.243134 
	C223.523056,227.512466 226.337662,227.651352 229.117050,228.043442 
	C231.834518,228.426834 233.041412,230.157135 232.986877,232.913864 
	C232.914764,236.559052 232.972214,240.206787 232.972870,243.853424 
	C232.974533,252.970825 237.861984,256.513855 246.682480,253.734970 
	C247.930298,253.341873 249.189713,252.813110 249.948746,251.186478 
	C252.719620,245.312927 250.131989,240.137543 248.923828,234.482834 
	C247.796249,233.556091 247.248566,232.736359 247.254608,231.240540 
	C246.686111,229.996277 246.243546,229.041519 245.579041,227.855560 
	C244.396255,227.589630 243.980698,226.812805 243.409180,225.902069 
	C243.418121,223.245087 241.634781,221.852661 240.209442,219.931641 
	C239.396347,220.119232 238.976593,220.029419 238.973953,219.275345 
	C236.275497,213.469406 231.643585,209.138580 227.697174,204.273010 
	C221.414520,196.527084 216.638916,188.235336 215.911728,177.900726 
	C215.495621,171.987076 218.245514,168.846100 223.213623,166.962570 
	C232.143478,163.577087 241.420013,163.506683 250.732742,164.546829 
	C255.000885,165.023544 259.299652,165.590576 263.209900,167.686279 
	C266.403564,169.397934 268.282349,171.687668 268.135040,175.583145 
	C267.934021,180.899429 268.106110,186.229218 268.070251,191.552887 
	C268.062500,192.703491 268.230072,194.599472 267.671997,194.883026 
	C263.636200,196.933807 259.322876,195.959747 255.098007,195.462326 
	C251.978119,195.094986 251.800827,192.816788 251.868835,190.296188 
	C251.972031,186.472412 251.906250,182.643753 251.893051,178.817230 
	C251.868362,171.666092 250.524872,170.163742 243.397476,169.273727 
	C235.791016,168.323883 232.484985,171.264420 232.908463,178.850098 
	C233.431610,188.220901 237.729950,196.041443 243.566040,203.052063 
	C247.274323,207.506668 251.393845,211.618958 255.615173,216.073944 
	C256.844086,216.696152 257.703735,217.272537 258.665466,218.115387 
	C258.748444,218.414734 258.585052,218.862183 258.658203,219.088837 
	C260.028046,219.952026 260.160553,221.309677 260.781494,222.734772 
	C262.641998,226.292282 264.385956,229.551987 266.367554,233.064148 
	C266.844940,233.358810 267.084625,233.400986 267.062439,233.697510 
	C267.274475,236.720428 267.519562,239.553070 268.272614,242.243546 
	C269.618958,247.053680 269.069489,251.394287 265.814575,255.939850 
	C265.536682,256.634644 265.385620,256.733154 264.705444,256.930298 
z"/>
<path fill="#7C0D0B" opacity="1.000000" stroke="none" 
	d="
M310.734467,318.204773 
	C311.354980,321.327667 310.387115,322.816284 307.484222,322.740997 
	C307.317841,322.736694 307.150696,322.740692 306.984558,322.751343 
	C296.589722,323.416016 294.690063,322.225311 293.445862,311.714630 
	C292.891998,307.035736 291.535126,305.689667 286.843323,305.849640 
	C275.986633,306.219818 275.909088,305.949219 274.974457,316.881042 
	C274.726013,319.787201 273.705017,321.618195 270.677002,322.028839 
	C269.690430,322.162628 268.732666,322.508911 267.746094,322.642975 
	C258.623932,323.882843 257.503387,322.970367 259.107849,314.021912 
	C263.972595,286.890106 269.102905,259.805939 273.981445,232.676544 
	C274.525482,229.651016 275.911041,228.852142 278.673615,228.961639 
	C282.333740,229.106689 286.014526,229.169800 289.666809,228.946609 
	C293.136353,228.734589 294.457275,229.868454 295.110229,233.533661 
	C300.118652,261.649414 305.432587,289.710754 310.734467,318.204773 
z"/>
<path fill="#7C0D0B" opacity="1.000000" stroke="none" 
	d="
M198.706543,181.290665 
	C201.135132,162.192093 203.427078,143.405182 205.676285,124.613136 
	C206.228928,119.995895 206.654358,115.363190 207.116501,110.735420 
	C207.771011,104.181084 209.003738,103.026367 215.494553,102.951080 
	C224.928757,102.841652 224.850342,102.827179 223.107040,112.267067 
	C218.373489,137.899185 213.707626,163.543839 209.026398,189.185608 
	C207.641190,196.773209 207.658646,196.776398 199.980179,196.777802 
	C188.491837,196.779892 188.336304,196.808853 186.375198,186.278351 
	C181.450592,159.834824 176.762360,133.347000 171.747528,106.920929 
	C171.100449,103.511116 171.948761,102.883553 175.014038,102.911880 
	C188.646301,103.037865 187.672745,101.966248 189.215286,115.270538 
	C191.758163,137.202896 194.431137,159.120163 197.094315,181.479126 
	C198.051041,182.792511 197.876114,183.871002 197.604385,185.319458 
	C198.082214,183.858398 198.010559,182.650909 198.706543,181.290665 
z"/>
<path fill="#811412" opacity="1.000000" stroke="none" 
	d="
M205.246124,441.641907 
	C205.142212,442.850983 205.636658,444.296967 206.201004,443.665344 
	C210.001099,439.412079 211.188309,443.822449 212.884003,445.756256 
	C214.384583,444.993469 213.896255,443.868774 213.989899,442.965027 
	C214.098114,441.920532 214.112167,440.930084 215.601105,441.101288 
	C216.714844,441.229340 217.929871,442.019135 217.722916,442.821259 
	C216.457657,447.724854 217.216293,453.216827 213.801605,458.036255 
	C211.428635,454.411469 211.019852,450.426453 208.236725,447.440918 
	C205.688675,449.863312 203.107101,452.317566 200.525528,454.771851 
	C200.154053,454.603821 199.782562,454.435822 199.411087,454.267822 
	C200.900177,448.834991 200.092255,442.901642 204.235626,438.000854 
	C206.100555,438.797302 205.270859,440.144379 205.246124,441.641907 
z"/>
<path fill="#831614" opacity="1.000000" stroke="none" 
	d="
M331.622192,41.750992 
	C334.676117,42.873230 337.584656,44.897972 336.682068,47.363235 
	C335.314087,51.099792 336.003571,56.318027 331.751923,58.290359 
	C329.361755,59.399143 326.368500,57.445114 324.337677,55.689617 
	C321.564392,53.292290 321.264313,50.046471 322.730499,46.681927 
	C323.522614,44.864151 324.707855,43.338863 326.530884,42.001801 
	C328.261322,41.136570 329.767975,41.628704 331.622192,41.750992 
z"/>
<path fill="#841816" opacity="1.000000" stroke="none" 
	d="
M446.113037,166.030685 
	C447.525726,165.662186 448.598022,165.134598 449.708099,165.037292 
	C451.044861,164.920090 452.580811,165.216980 452.807678,166.822784 
	C452.998138,168.171127 451.774384,168.596344 450.597137,169.026230 
	C446.597839,170.486679 442.652405,172.094589 438.195679,173.838150 
	C438.012573,169.662079 441.363953,167.089676 441.652863,163.560913 
	C440.013275,162.978302 439.038330,164.115219 437.874664,164.552399 
	C436.908661,164.915283 435.791779,165.266144 435.274780,164.139725 
	C434.803345,163.112503 434.589966,161.446411 435.740112,160.973938 
	C440.445099,159.041260 444.786377,155.815643 450.533051,156.064865 
	C449.029358,158.921875 447.739746,161.372192 446.169067,164.055725 
	C445.451294,164.857590 445.434143,165.449539 446.113037,166.030685 
z"/>
<path fill="#861B1A" opacity="1.000000" stroke="none" 
	d="
M302.824982,34.445175 
	C303.264740,36.785751 303.866180,38.607849 305.916199,39.773312 
	C306.245056,39.460831 306.754822,39.207779 306.851288,38.844894 
	C307.271362,37.264172 306.738647,34.585468 309.124542,34.869152 
	C311.981293,35.208817 311.076752,37.812687 310.595642,39.667263 
	C309.575684,43.598961 308.405914,47.491798 307.097321,52.106670 
	C304.245636,48.558155 302.843048,45.034729 301.417603,41.508083 
	C299.376129,42.556019 300.341980,44.514305 299.839294,45.980396 
	C299.346558,47.417587 298.513092,48.088593 296.811401,47.450291 
	C295.300873,46.883682 295.454803,46.253345 295.864075,44.927898 
	C297.061279,41.050621 298.018616,37.097984 299.014923,33.160938 
	C299.238373,32.278004 299.638092,31.494463 300.535919,31.579329 
	C301.933136,31.711399 301.912750,33.291508 302.824982,34.445175 
z"/>
<path fill="#811412" opacity="1.000000" stroke="none" 
	d="
M40.244522,292.010376 
	C39.452808,289.205414 41.784477,288.173035 42.783607,286.390015 
	C43.152859,285.731079 43.489449,284.770752 43.278378,284.134460 
	C42.941250,283.118134 41.998238,283.749390 41.222359,283.815308 
	C39.721241,283.942871 37.461502,285.870270 37.065804,282.635315 
	C36.724716,279.846832 39.145496,280.301422 40.788143,279.900970 
	C41.896507,279.630737 42.984009,279.274963 44.475006,278.927246 
	C46.073906,278.375610 47.416122,278.313629 48.991905,277.648193 
	C50.401211,277.248077 51.434219,276.933746 52.782196,277.751892 
	C53.006638,282.047241 48.922863,283.647766 47.236641,286.758484 
	C49.419456,288.463684 51.205917,285.268524 53.078487,287.010162 
	C53.800350,287.681580 54.890427,288.068512 54.715576,289.219208 
	C54.633266,289.760925 53.877029,290.689453 53.571251,290.634521 
	C49.087776,289.829651 45.175911,293.387360 40.244522,292.010376 
z"/>
<path fill="#831614" opacity="1.000000" stroke="none" 
	d="
M436.098022,319.126343 
	C436.966827,317.063049 438.037018,316.955872 439.736633,317.843842 
	C442.351898,319.210358 445.203094,320.120117 447.849518,321.434448 
	C449.093567,322.052307 451.813446,321.646271 450.923004,324.259705 
	C449.950653,327.113678 449.552887,330.476959 445.856445,331.620148 
	C443.617279,332.312683 441.579926,331.966370 440.715088,329.943756 
	C439.676239,327.514130 438.752319,326.401917 436.059387,327.808472 
	C434.942047,328.392029 433.684387,327.551636 433.289276,326.334961 
	C432.832520,324.928223 434.209137,324.365692 435.023163,323.611877 
	C436.170990,322.548920 438.065186,323.551575 439.369720,321.878540 
	C439.062256,320.219269 435.906067,321.739075 436.098022,319.126343 
z"/>
<path fill="#831614" opacity="1.000000" stroke="none" 
	d="
M77.225075,139.706863 
	C74.995583,144.047089 72.723564,146.951797 67.362282,145.289658 
	C62.315777,143.725128 61.948402,140.124557 62.015778,135.964493 
	C62.063496,133.018021 64.981224,132.196747 66.623108,130.078476 
	C68.329185,129.152527 69.824821,129.620285 71.660255,129.768677 
	C74.304359,130.685135 76.087990,131.916626 76.932892,134.618408 
	C77.853371,136.336288 77.374794,137.852081 77.225075,139.706863 
z"/>
<path fill="#851A18" opacity="1.000000" stroke="none" 
	d="
M138.088684,416.738739 
	C139.977386,413.870056 137.276108,413.811584 135.942062,413.023163 
	C134.440842,412.136017 133.511383,410.999542 134.421021,409.411560 
	C135.552414,407.436493 136.995270,408.863892 138.129135,409.567474 
	C144.631439,413.602386 144.615997,413.627228 140.811935,420.484406 
	C136.875900,427.579437 133.541153,427.923340 127.875351,422.031647 
	C126.874100,420.990448 127.210396,420.475403 127.734818,419.571960 
	C128.398605,418.428436 128.917160,417.696472 130.364960,418.784393 
	C131.731796,419.811493 133.360199,420.490540 135.666031,421.758423 
	C135.225998,420.306763 135.176468,419.883240 134.981079,419.543610 
	C134.109634,418.028748 130.818329,417.065765 132.753952,415.010773 
	C134.475952,413.182617 136.019989,416.191162 138.088684,416.738739 
z"/>
<path fill="#841816" opacity="1.000000" stroke="none" 
	d="
M155.311569,437.226898 
	C150.159180,434.760834 149.656998,433.238831 152.735168,429.675751 
	C153.557739,428.723572 154.039749,427.832123 154.014404,426.614746 
	C153.943588,423.210266 155.834427,421.760010 158.989700,422.098541 
	C161.741150,422.393768 166.554031,428.763794 165.739929,428.976715 
	C161.208023,430.162079 164.124496,435.503571 160.410660,437.018250 
	C158.668884,437.853882 157.159576,437.375610 155.311569,437.226898 
z"/>
<path fill="#851A18" opacity="1.000000" stroke="none" 
	d="
M61.401440,312.742462 
	C57.767029,316.636108 52.807877,316.512726 48.493820,317.694946 
	C45.409931,318.539948 45.876499,314.544891 45.028858,312.664581 
	C44.375381,311.215027 42.891304,309.275543 44.954483,307.708771 
	C46.580521,306.473938 47.437557,307.744690 47.815327,309.088287 
	C48.247181,310.624237 47.935356,312.539673 50.273830,312.690826 
	C52.190048,310.956818 48.421204,308.492554 50.728600,307.332397 
	C53.678204,305.849304 53.734142,310.300140 56.303165,310.756561 
	C57.086414,309.046448 55.876652,307.661682 55.561478,306.252106 
	C55.305687,305.108093 54.512806,303.862854 55.876167,303.209747 
	C57.413967,302.473145 58.418415,303.708679 58.925491,304.980438 
	C59.896027,307.414642 60.675957,309.924805 61.401440,312.742462 
z"/>
<path fill="#831614" opacity="1.000000" stroke="none" 
	d="
M50.655407,181.136505 
	C54.269817,180.707947 56.012383,182.729782 56.825081,185.368530 
	C57.605076,187.901093 56.835545,190.271240 54.506527,191.948166 
	C51.990051,193.760010 42.139439,190.692398 41.253983,187.692184 
	C40.527927,185.232056 41.890591,183.218170 43.221207,181.396103 
	C45.408669,178.400711 47.925171,181.223557 50.655407,181.136505 
z"/>
<path fill="#851A18" opacity="1.000000" stroke="none" 
	d="
M348.285217,58.330864 
	C348.839203,57.284225 349.025726,56.249454 349.616730,55.901371 
	C351.225861,54.953606 351.100342,51.278294 353.657257,52.481228 
	C356.221985,53.687820 354.678497,55.708801 353.405243,57.365688 
	C352.754608,58.212357 353.519135,58.965328 354.176758,59.416317 
	C355.541229,60.352116 356.625275,59.717606 357.613708,58.629337 
	C358.557098,57.590641 358.833008,54.888065 361.111969,56.741093 
	C362.829193,58.137356 361.633728,59.592537 360.720490,61.075317 
	C359.267334,63.434639 358.112274,65.975609 356.773346,68.407921 
	C355.919220,69.959557 354.305634,70.448929 352.932770,69.775330 
	C350.980164,68.817329 353.005798,67.556007 353.199036,66.459213 
	C353.383942,65.409653 355.660553,64.520210 353.591766,63.365734 
	C352.262390,62.623871 350.672119,62.787643 349.542908,64.132645 
	C348.597260,65.259033 348.243103,67.893379 346.066284,66.289413 
	C343.673981,64.526688 345.736237,62.909492 346.853882,61.334206 
	C347.414520,60.543983 347.695038,59.555038 348.285217,58.330864 
z"/>
<path fill="#851A18" opacity="1.000000" stroke="none" 
	d="
M179.542328,447.545044 
	C177.768433,446.129913 173.641159,447.257751 174.486191,444.225311 
	C175.426346,440.851532 178.198593,443.769226 180.176483,443.933746 
	C180.816742,443.987000 181.465179,443.942108 182.150558,443.942108 
	C182.150558,443.457214 182.199844,443.171936 182.142822,442.909790 
	C181.651367,440.650818 176.752945,441.605347 178.308395,438.256592 
	C179.494644,435.702728 182.496536,439.579865 184.278442,437.191742 
	C183.427338,435.456482 181.291489,435.756958 179.731659,435.096985 
	C178.385941,434.527557 177.762939,433.843506 178.216858,432.545807 
	C178.563110,431.555908 179.518463,430.910980 180.584625,431.270172 
	C183.210297,432.154755 185.801636,433.151428 188.362198,434.210846 
	C188.892334,434.430176 189.685852,435.379303 189.588135,435.549164 
	C187.362595,439.417877 187.274277,444.151886 184.617615,447.823669 
	C182.908203,450.186218 181.479935,447.317596 179.542328,447.545044 
z"/>
<path fill="#841816" opacity="1.000000" stroke="none" 
	d="
M311.932404,433.904358 
	C318.944977,431.323242 318.941956,431.324219 321.077362,437.911438 
	C321.331848,438.696442 321.704498,439.446930 321.914856,440.241852 
	C323.505615,446.253204 321.295410,449.109741 314.855164,449.555969 
	C314.119110,449.606964 313.420776,449.695190 313.272369,448.979919 
	C313.115631,448.224548 313.088135,447.191498 313.489685,446.622314 
	C314.381134,445.358734 315.863617,445.005219 317.374207,444.756165 
	C317.901825,444.669159 318.697021,444.181000 318.330994,443.330139 
	C318.061066,442.702789 317.576752,442.552155 316.761505,442.613495 
	C315.194641,442.731354 312.917328,444.978302 312.146088,442.186218 
	C311.196320,438.747650 315.086853,439.552582 316.903961,438.050812 
	C315.583221,436.549103 314.252228,437.027557 312.878876,437.528168 
	C311.636749,437.980957 310.043335,438.642548 309.364685,437.110443 
	C308.594452,435.371490 309.846466,434.362915 311.932404,433.904358 
z"/>
<path fill="#861B1A" opacity="1.000000" stroke="none" 
	d="
M113.739868,402.791473 
	C110.929543,406.146606 106.684616,406.861053 104.671150,404.051239 
	C102.641907,401.219421 100.885185,397.655853 106.134224,395.703918 
	C106.491653,395.570984 106.851379,394.963104 106.895042,394.543365 
	C107.258232,391.051392 109.222633,389.082214 112.540329,390.302063 
	C116.098557,391.610321 118.751968,394.175781 117.229324,398.901184 
	C115.135262,399.579315 112.722916,399.425781 113.739868,402.791473 
z"/>
<path fill="#811412" opacity="1.000000" stroke="none" 
	d="
M462.502563,232.260513 
	C464.449554,231.910309 466.540009,231.801956 466.594666,233.895111 
	C466.650024,236.014374 464.833099,235.979950 463.004822,235.667694 
	C461.646118,235.435654 460.170349,235.888763 458.368866,236.068375 
	C455.345306,236.687668 452.705017,236.823364 450.022614,235.559372 
	C452.836151,233.679611 453.905060,230.408569 456.768860,228.505249 
	C455.389648,226.561707 453.240387,227.976349 451.186584,227.123566 
	C451.110626,225.991272 451.266235,225.121109 451.709930,224.078430 
	C453.664917,223.163757 455.414459,223.624344 457.533142,223.706970 
	C461.020538,224.203979 463.916718,221.925751 467.332062,223.478912 
	C465.718536,226.602875 462.533051,228.463974 460.301270,231.508087 
	C460.112854,232.134079 459.924316,232.356934 459.617035,232.468964 
	C460.485687,232.571274 461.353699,232.498016 462.502563,232.260513 
z"/>
<path fill="#861B1A" opacity="1.000000" stroke="none" 
	d="
M65.783546,327.778564 
	C66.474892,328.141541 66.820503,328.231323 67.043472,328.447571 
	C73.302696,334.518311 72.947060,336.795990 65.193985,340.395813 
	C56.817348,344.285156 56.022182,343.655090 55.937687,334.400574 
	C55.910408,331.412933 57.383801,329.839294 59.654873,328.070557 
	C61.739983,327.173981 63.575413,327.612671 65.783546,327.778564 
z"/>
<path fill="#841816" opacity="1.000000" stroke="none" 
	d="
M453.829468,296.077209 
	C455.759247,297.627563 459.499054,295.972015 459.527405,298.672577 
	C459.556702,301.458008 457.994568,304.281860 457.009766,307.046539 
	C456.558868,308.312408 455.420898,308.043488 454.496460,307.649231 
	C453.748535,307.330292 453.103485,306.852203 453.597534,305.772919 
	C454.068970,304.742981 454.384277,303.637543 454.717072,302.549622 
	C454.936462,301.832367 454.618622,301.246918 454.018677,300.864777 
	C452.998962,300.215302 452.444824,300.955597 452.211823,301.726135 
	C451.721191,303.348694 451.314880,305.449463 449.156982,304.699585 
	C446.588806,303.807190 449.056946,301.939056 448.923157,300.511597 
	C448.837250,299.594696 448.448578,298.958099 447.406982,298.543304 
	C446.820190,300.209259 446.312775,301.902405 445.621796,303.516998 
	C445.207642,304.484833 444.332428,305.055237 443.197418,304.788300 
	C441.864197,304.474701 441.875793,303.262390 442.103546,302.395294 
	C442.725616,300.026642 443.396820,297.633514 444.415863,295.419098 
	C445.133789,293.859070 446.619598,293.804443 448.256378,294.499298 
	C449.901245,295.197571 451.696808,295.540833 453.829468,296.077209 
z"/>
<path fill="#841816" opacity="1.000000" stroke="none" 
	d="
M266.725586,445.355194 
	C267.117218,443.275787 268.002228,442.621490 269.913239,443.719666 
	C270.899200,445.689941 270.269348,447.490723 270.707031,449.553894 
	C270.932220,452.035553 271.077850,454.181335 271.014832,456.320984 
	C270.979523,457.521301 271.744263,459.282043 270.063049,459.741974 
	C268.647583,460.129181 267.813141,458.567291 266.993805,457.621735 
	C265.613007,456.028168 264.433228,454.260437 262.980530,452.274902 
	C260.248413,452.254547 262.054779,454.188110 261.718842,455.494202 
	C261.934082,456.971924 262.600189,458.564972 260.653961,458.837402 
	C258.929047,459.078796 259.306458,457.514984 258.949188,456.511810 
	C258.175201,454.338654 257.854034,452.135864 257.951843,449.418579 
	C257.295898,447.011169 257.252655,445.037689 258.332306,442.869202 
	C261.389557,444.013184 261.799927,447.447113 264.736816,448.984802 
	C267.644043,448.881683 266.018616,446.791107 266.725586,445.355194 
z"/>
<path fill="#841816" opacity="1.000000" stroke="none" 
	d="
M430.562744,340.786499 
	C430.960724,341.429810 430.994202,341.857361 431.036713,342.606689 
	C432.314026,344.081451 433.886749,343.223846 435.594666,343.759888 
	C439.133209,348.332123 438.855957,352.220947 434.939850,354.321686 
	C433.300964,355.200836 431.093842,356.297638 430.049438,353.400665 
	C429.639465,352.263428 428.806183,351.847137 427.892242,351.567566 
	C421.718323,349.679169 421.079193,346.774872 425.919098,341.322632 
	C427.380341,340.147705 428.815369,340.614960 430.562744,340.786499 
z"/>
<path fill="#841816" opacity="1.000000" stroke="none" 
	d="
M65.247139,164.596100 
	C62.860435,167.590134 60.880062,171.313019 57.274384,166.420639 
	C57.137062,166.234314 56.378788,166.429977 55.939705,166.553604 
	C52.216206,167.601959 50.225895,166.151688 50.032513,162.348969 
	C49.799389,157.764709 52.007626,155.216095 56.613518,155.070999 
	C57.716190,155.931534 57.387802,157.725769 59.507626,157.299011 
	C61.889866,156.769363 63.295898,158.120346 64.906219,159.567688 
	C65.871971,161.263336 65.368347,162.759445 65.247139,164.596100 
z"/>
<path fill="#881F1D" opacity="1.000000" stroke="none" 
	d="
M78.527672,350.724854 
	C85.002914,354.454132 85.202026,359.434906 79.405403,363.139160 
	C78.853714,363.491730 78.252182,363.765717 77.695427,364.111053 
	C75.762405,365.309967 73.528557,368.632355 71.612747,365.655457 
	C69.863464,362.937317 74.250526,362.269958 75.622467,360.464233 
	C76.768959,358.955231 81.053062,359.145447 79.121307,356.089355 
	C77.370155,353.318939 74.725655,355.695038 72.648575,356.958374 
	C72.087967,357.299377 71.567566,357.914276 70.986015,357.971832 
	C69.564667,358.112396 68.620926,361.628387 66.766853,358.605316 
	C64.898643,355.559143 67.610008,354.607819 69.364410,354.073639 
	C71.160240,353.526855 71.956032,352.095764 73.636383,351.105194 
	C75.280312,350.159546 76.732002,350.619995 78.527672,350.724854 
z"/>
<path fill="#811412" opacity="1.000000" stroke="none" 
	d="
M253.727173,35.425365 
	C254.287552,32.588757 254.479416,30.112408 255.120148,27.758219 
	C255.877060,24.977066 259.415985,25.262325 263.939056,28.694857 
	C264.845642,30.440678 264.294159,31.980419 264.733704,33.767609 
	C265.961060,36.581730 266.539948,38.980911 263.368408,40.887199 
	C260.319946,41.936264 257.510254,41.328671 254.325348,41.205692 
	C253.915955,40.979244 254.020493,40.977470 254.025299,41.029526 
	C253.029785,39.410294 253.683044,37.589863 253.727173,35.425365 
z"/>
<path fill="#831614" opacity="1.000000" stroke="none" 
	d="
M43.745789,217.226837 
	C40.620193,215.168579 37.400375,213.833130 35.131298,210.731705 
	C39.837151,207.433716 45.320122,207.056137 50.505657,205.776321 
	C51.203213,205.604156 52.030514,205.412613 52.209866,206.065948 
	C52.395798,206.743256 52.255302,207.886398 51.789429,208.305832 
	C48.583649,211.192139 46.018604,214.028244 50.275475,218.095413 
	C50.543663,218.351669 50.083820,219.684052 49.647449,220.288010 
	C49.032810,221.138702 48.302139,220.736603 47.575531,220.119293 
	C46.450035,219.163101 45.204327,218.348419 43.745789,217.226837 
z"/>
<path fill="#861B1A" opacity="1.000000" stroke="none" 
	d="
M239.711151,446.243896 
	C240.296082,445.570770 240.633835,445.088043 241.031845,444.293854 
	C242.461197,443.317474 243.807388,443.181183 245.113083,444.586792 
	C241.804123,449.880737 239.934326,455.521271 236.578445,461.917053 
	C234.285675,455.517456 232.425583,450.281708 230.524109,445.061035 
	C230.204132,444.182526 230.055328,443.528717 231.174362,443.155121 
	C233.337234,442.432983 234.061523,443.976776 235.049881,445.749695 
	C236.580231,446.926483 238.046951,446.384277 239.711151,446.243896 
z"/>
<path fill="#851A18" opacity="1.000000" stroke="none" 
	d="
M463.660614,205.548416 
	C462.900757,208.906143 460.450684,209.121674 457.444824,209.032440 
	C455.303619,209.886795 453.453125,209.357224 451.246521,209.217163 
	C447.121338,208.902115 447.177277,205.426605 447.306702,203.586304 
	C447.492371,200.945877 449.044617,198.065125 452.033112,197.148071 
	C454.352173,196.436447 456.862366,196.292053 459.303101,196.055267 
	C460.594757,195.929947 462.100250,195.835236 462.000122,197.944656 
	C461.926880,199.488403 461.368103,199.804749 459.785767,199.550323 
	C458.234192,199.300858 456.951172,200.792908 455.137085,200.714111 
	C453.001801,200.621368 451.226257,202.402847 451.483002,204.354309 
	C451.727539,206.213013 453.885895,206.225586 455.634674,205.768646 
	C456.555206,205.528091 457.495789,205.364380 458.705811,205.029541 
	C460.519073,204.326477 462.022583,204.180069 463.660614,205.548416 
z"/>
<path fill="#851A18" opacity="1.000000" stroke="none" 
	d="
M119.328934,78.698898 
	C121.439255,79.748131 123.261864,80.543648 124.986717,81.513107 
	C125.731964,81.931969 127.153221,82.115715 126.596619,83.538887 
	C126.209267,84.529305 125.360832,85.163589 124.224213,84.979599 
	C120.132172,84.317184 117.820381,85.379379 118.728951,90.140915 
	C118.921646,91.150787 117.884239,91.869598 116.776695,91.983002 
	C115.489441,92.114807 115.238968,91.334053 114.962242,90.211311 
	C113.758774,85.328476 112.399399,80.484070 110.782181,74.452820 
	C114.158020,76.121513 116.579803,77.318611 119.328934,78.698898 
z"/>
<path fill="#851A18" opacity="1.000000" stroke="none" 
	d="
M460.844543,273.912292 
	C459.108337,274.023834 457.602753,274.106567 457.333252,275.746735 
	C457.089020,277.233063 458.902588,277.182281 459.618805,278.036957 
	C460.214752,278.748047 461.318939,279.005859 462.076691,279.615295 
	C463.124268,280.457855 464.097076,281.422546 463.093750,282.947662 
	C461.775299,284.951843 460.939423,283.181305 460.041962,282.519958 
	C455.945221,279.501282 451.020905,277.775299 446.912109,274.000702 
	C451.877197,271.201080 457.311859,270.342163 462.563690,268.999176 
	C463.426300,268.778595 464.746674,268.945343 464.817535,270.311676 
	C464.943726,272.745361 462.666473,272.922180 460.844543,273.912292 
z"/>
<path fill="#811412" opacity="1.000000" stroke="none" 
	d="
M365.684570,77.387741 
	C369.641205,74.845909 373.365936,72.476212 377.244873,70.393761 
	C378.379456,69.784630 379.975586,68.846664 381.312225,70.073441 
	C382.536987,71.197487 381.656586,72.468643 381.226227,73.717857 
	C380.747070,75.108803 380.125641,76.600365 380.210266,78.009453 
	C380.539520,83.491608 377.453125,82.899345 374.727692,80.726746 
	C372.119141,78.647316 369.418274,79.370880 366.292511,78.942848 
	C365.586609,78.529892 365.463287,78.123886 365.684570,77.387741 
z"/>
<path fill="#831614" opacity="1.000000" stroke="none" 
	d="
M87.637085,117.277443 
	C88.201469,116.885666 88.511528,116.669762 88.959595,116.203133 
	C89.933182,114.552437 89.236664,112.962860 89.946404,111.275955 
	C90.945511,111.028633 91.645538,111.015663 92.694351,111.045029 
	C93.824516,112.423576 93.390022,113.874817 93.237450,115.658646 
	C92.538353,118.091980 92.323914,120.334885 89.376587,121.031166 
	C87.320595,121.861794 85.529861,121.369499 83.377472,121.250214 
	C77.652451,118.502571 76.241241,113.148674 79.840584,108.735374 
	C81.068268,107.230072 82.344398,105.466766 84.792320,106.087845 
	C85.831703,106.351555 86.883598,106.944832 86.648178,108.040436 
	C86.197121,110.139603 84.120178,110.383980 82.119064,111.183754 
	C81.266632,112.607147 81.546425,113.955566 81.698029,115.583084 
	C82.107193,116.200638 82.355797,116.523224 82.883255,116.980446 
	C84.515732,117.892365 85.972260,117.385689 87.637085,117.277443 
z"/>
<path fill="#881F1D" opacity="1.000000" stroke="none" 
	d="
M141.295853,57.616219 
	C143.186829,60.701534 137.002731,60.738003 139.481888,63.883446 
	C140.985382,65.791023 142.213150,67.922615 143.488983,70.000114 
	C144.118820,71.025711 144.498672,72.146111 143.071365,72.939636 
	C141.722839,73.689339 140.749924,73.652779 139.871902,72.068176 
	C138.852646,70.228714 137.130890,68.732750 136.331284,66.828514 
	C135.252457,64.259361 133.923431,64.192833 131.879364,65.474289 
	C130.814438,66.141907 129.981827,65.550308 129.359894,64.696213 
	C128.734451,63.837296 129.227707,62.929844 129.844604,62.509949 
	C133.134338,60.270744 136.473663,58.097557 139.885895,56.051750 
	C140.466080,55.703903 140.931808,56.623116 141.295853,57.616219 
z"/>
<path fill="#881F1D" opacity="1.000000" stroke="none" 
	d="
M84.646027,383.243591 
	C83.676476,382.286346 82.865509,381.648132 82.316589,380.833405 
	C81.556625,379.705475 81.942924,378.620483 82.863533,377.700195 
	C83.847069,376.716888 84.731743,377.257385 85.440025,377.994720 
	C88.039429,380.700562 90.057014,379.048553 91.389275,376.846558 
	C92.309097,375.326233 93.668846,375.237061 94.824272,374.471100 
	C96.179008,373.572968 97.071648,373.276398 98.104164,374.714020 
	C99.212708,376.257507 97.613968,376.778381 96.973137,377.518036 
	C95.894539,378.762878 94.753334,380.142426 93.332649,380.859192 
	C90.999619,382.036224 90.187172,383.329742 92.057266,385.412567 
	C93.050018,386.518280 93.086189,387.434448 92.065659,388.400238 
	C90.770065,389.626343 90.029633,388.475800 89.212219,387.669617 
	C87.789619,386.266663 86.352516,384.878357 84.646027,383.243591 
z"/>
<path fill="#851A18" opacity="1.000000" stroke="none" 
	d="
M352.447205,414.843872 
	C356.938232,417.672302 361.031647,420.610748 365.130096,423.542145 
	C365.848206,424.055756 367.507751,424.123108 366.775238,425.378204 
	C366.323303,426.152618 364.773041,426.784698 363.819183,426.663971 
	C361.817688,426.410706 360.259552,425.086517 358.882019,423.107086 
	C355.286713,422.256348 356.864838,424.837341 356.707458,426.521790 
	C356.928253,427.957825 356.995453,429.101746 357.039429,430.246582 
	C357.086426,431.469147 356.315765,432.013031 355.260345,432.181976 
	C353.544495,432.456726 354.296112,430.978851 353.955261,430.267548 
	C352.222687,426.651947 353.720978,422.466736 351.915771,418.442993 
	C351.376801,416.970276 351.311279,415.940521 352.447205,414.843872 
z"/>
<path fill="#851A18" opacity="1.000000" stroke="none" 
	d="
M407.776703,391.782532 
	C406.407928,392.728668 405.722412,394.825653 403.894379,393.235382 
	C402.656372,392.158447 403.463104,391.227722 404.204834,390.265137 
	C405.713226,388.307770 404.505371,386.938965 403.135681,385.587250 
	C401.490662,383.963837 399.761841,382.395142 398.338623,380.590393 
	C397.660309,379.730255 397.561401,378.170471 398.505463,377.371765 
	C399.512543,376.519714 400.252441,377.723083 400.923004,378.378448 
	C402.105652,379.534424 403.283478,380.701324 404.382294,381.935791 
	C406.112518,383.879730 407.992493,384.870453 410.391754,383.092804 
	C411.359070,382.376099 412.236267,381.569122 413.327148,382.887085 
	C414.400848,384.184387 413.110504,384.883148 412.703369,385.884521 
	C411.724365,388.292206 409.701813,389.750488 407.776703,391.782532 
z"/>
<path fill="#811412" opacity="1.000000" stroke="none" 
	d="
M199.713104,35.374447 
	C199.284592,33.664581 198.457001,32.353626 199.466507,30.547606 
	C202.093246,31.449795 203.116913,34.548840 205.865814,35.371716 
	C207.861221,35.969032 209.187668,36.570538 208.270447,33.556923 
	C207.897812,32.332619 207.434616,30.698542 209.192139,30.263454 
	C211.030136,29.808443 211.786255,31.192001 212.068100,32.837730 
	C212.205460,33.639709 212.413849,34.430000 212.602173,35.222706 
	C213.878555,40.595249 212.589050,41.823666 207.150940,40.382500 
	C204.925278,39.792675 202.711380,39.158363 200.231003,38.278191 
	C199.396057,37.334740 199.486542,36.535919 199.713104,35.374447 
z"/>
<path fill="#841816" opacity="1.000000" stroke="none" 
	d="
M381.353973,401.664948 
	C380.336273,400.573181 379.406921,399.881989 378.565002,399.096954 
	C377.861572,398.441071 377.824066,397.631134 378.554291,396.961548 
	C379.165680,396.400909 380.117432,395.745026 380.722321,396.521423 
	C384.508362,401.381073 390.970764,400.383362 395.718994,403.469208 
	C393.062622,407.237701 389.900238,404.983154 386.626526,404.204376 
	C385.460876,405.409119 385.460876,405.409119 385.687469,409.356384 
	C386.276947,411.560913 385.169495,412.592438 383.516602,413.551666 
	C382.987030,411.907349 382.483612,410.344177 381.948364,408.414734 
	C381.065460,406.091705 381.737091,404.024658 381.353973,401.664948 
z"/>
<path fill="#811412" opacity="1.000000" stroke="none" 
	d="
M288.660828,451.587433 
	C291.108521,448.534119 288.605591,446.113922 288.255371,443.493500 
	C288.086304,442.228485 287.423584,440.638397 289.307007,440.230896 
	C290.907196,439.884705 291.649170,441.055908 291.957642,442.533020 
	C292.227203,443.823822 292.976227,445.136230 292.842407,446.366028 
	C292.482147,449.676727 293.819031,451.047729 297.044952,450.966919 
	C298.089996,450.940704 299.007782,451.299255 298.957703,452.685638 
	C298.908508,454.047394 297.751007,454.329895 296.906158,454.479584 
	C294.246185,454.950867 291.540710,455.160339 288.857910,455.510010 
	C287.407410,455.699066 285.559143,456.265198 285.254761,454.260651 
	C284.959869,452.318512 286.853973,452.078979 288.660828,451.587433 
z"/>
<path fill="#881F1D" opacity="1.000000" stroke="none" 
	d="
M101.364914,95.625854 
	C102.811195,98.277138 108.176880,99.767609 105.074135,102.762215 
	C102.058739,105.672523 100.973557,100.061119 98.546944,99.026085 
	C98.264801,98.905754 98.011490,98.603622 97.853668,98.324272 
	C96.686966,96.259300 92.183189,94.922417 94.925293,92.197411 
	C96.508118,90.624443 99.327263,93.559952 101.364914,95.625854 
z"/>
<path fill="#881F1D" opacity="1.000000" stroke="none" 
	d="
M154.822617,52.911095 
	C153.673035,51.057156 153.244278,49.127831 154.882919,48.306465 
	C156.725204,47.383038 157.625931,49.251095 158.389633,50.803871 
	C159.542023,53.146896 160.812378,55.436237 162.125656,57.694271 
	C163.020874,59.233521 162.898666,60.610031 161.463791,61.563854 
	C159.482346,62.881008 158.992767,61.072575 158.327530,59.803120 
	C157.190811,57.633904 156.064835,55.459057 154.822617,52.911095 
z"/>
<path fill="#881F1D" opacity="1.000000" stroke="none" 
	d="
M340.819214,438.945770 
	C339.904541,440.121277 338.860962,440.042755 337.915375,439.807098 
	C337.130005,439.611389 331.774139,427.820862 332.132324,427.084198 
	C332.472748,426.383972 333.034912,425.449249 333.661682,425.300507 
	C335.051086,424.970764 335.642365,426.155090 336.112701,427.264404 
	C337.710693,431.033630 339.310242,434.802246 340.819214,438.945770 
z"/>
<path fill="#881F1D" opacity="1.000000" stroke="none" 
	d="
M424.987976,370.264130 
	C424.873291,372.004150 423.894440,372.273773 422.892426,371.859924 
	C418.901245,370.211426 415.989227,366.972534 412.510468,364.560120 
	C411.702820,364.000000 411.829376,362.618134 412.299683,361.770996 
	C412.886017,360.714966 414.220673,360.772614 414.862946,361.476715 
	C417.844910,364.745667 422.747528,365.695587 424.987976,370.264130 
z"/>
<path fill="#811412" opacity="1.000000" stroke="none" 
	d="
M279.765656,33.259666 
	C280.411865,31.288786 280.531616,28.813025 282.912476,29.343754 
	C285.039093,29.817814 284.302887,32.449936 283.847290,33.611458 
	C282.527954,36.975266 284.535645,41.387939 280.243408,43.870255 
	C278.482239,43.154110 278.428223,41.926697 278.750671,40.295860 
	C278.975128,39.688873 279.013763,39.409386 279.175720,38.725052 
	C279.806305,36.757069 279.312744,35.133083 279.765656,33.259666 
z"/>
<path fill="#811412" opacity="1.000000" stroke="none" 
	d="
M465.499054,250.757233 
	C466.144226,251.885361 467.391418,252.621399 466.194397,253.961884 
	C464.560303,254.768616 463.106903,254.381104 461.266235,254.489868 
	C458.826447,254.468567 456.815887,254.537979 454.409729,254.272766 
	C453.045227,253.845642 451.680786,254.509445 451.200806,253.149033 
	C450.865692,252.199127 451.207184,251.325027 452.717529,250.953369 
	C454.745026,250.184906 456.490417,250.647156 458.625671,250.510086 
	C461.075256,250.534561 463.093964,250.455032 465.499054,250.757233 
z"/>
<path fill="#811412" opacity="1.000000" stroke="none" 
	d="
M399.270569,85.665749 
	C398.993988,87.682884 398.826508,89.398315 397.071747,90.089424 
	C396.241364,90.416481 395.244202,90.248642 394.619812,89.136826 
	C393.983978,88.004669 393.670654,87.089455 394.800476,86.141548 
	C395.795654,85.306625 396.773895,84.451485 397.927673,83.300919 
	C399.983002,82.917618 399.307678,84.344070 399.270569,85.665749 
z"/>
<path fill="#3C3C3C" opacity="1.000000" stroke="none" 
	d="
M270.041718,187.951874 
	C270.041779,182.508026 270.041779,177.554245 270.041779,172.600449 
	C270.275543,172.601410 270.509277,172.602371 270.743042,172.603333 
	C270.743042,180.783356 270.743042,188.963379 270.743042,197.143402 
	C270.509247,197.160980 270.275452,197.178558 270.041656,197.196136 
	C270.041656,194.278061 270.041656,191.359985 270.041718,187.951874 
z"/>
<path fill="#C6C6C6" opacity="1.000000" stroke="none" 
	d="
M389.638794,343.903198 
	C391.733246,345.008545 394.293732,344.439240 395.933167,347.286560 
	C391.990601,348.591278 388.896210,344.683441 385.107666,345.408691 
	C384.809723,344.877655 384.725220,344.691986 384.923157,344.388550 
	C386.284576,344.310760 387.363586,344.350677 388.837830,344.300201 
	C389.338379,343.989044 389.443665,343.768280 389.638794,343.903198 
z"/>
<path fill="#5D5D5D" opacity="1.000000" stroke="none" 
	d="
M249.020935,193.243958 
	C248.994919,186.875107 248.994919,180.931259 248.994919,174.987396 
	C249.277359,174.984879 249.559799,174.982376 249.842239,174.979858 
	C249.842239,181.268875 249.844040,187.557877 249.830383,193.846848 
	C249.830093,193.983154 249.652695,194.119080 249.557922,194.255173 
	C249.387604,194.059753 249.217270,193.864349 249.020935,193.243958 
z"/>
<path fill="#707070" opacity="1.000000" stroke="none" 
	d="
M234.001755,236.207947 
	C234.001511,234.116028 234.001511,232.490005 234.001511,230.863968 
	C234.222000,230.866287 234.442474,230.868591 234.662964,230.870895 
	C234.662964,237.007614 234.662964,243.144348 234.662964,249.281067 
	C234.442642,249.285492 234.222321,249.289902 234.001999,249.294327 
	C234.001999,245.087494 234.001999,240.880676 234.001755,236.207947 
z"/>
<path fill="#858585" opacity="1.000000" stroke="none" 
	d="
M287.808716,226.988708 
	C283.073395,226.988708 278.808777,226.988708 274.544159,226.988708 
	C274.546448,226.739288 274.548737,226.489853 274.551025,226.240433 
	C280.801605,226.240433 287.052185,226.240433 293.793396,226.240433 
	C291.732971,227.490921 289.949860,226.756226 287.808716,226.988708 
z"/>
<path fill="#F4F4F4" opacity="1.000000" stroke="none" 
	d="
M196.060593,198.984924 
	C199.833115,198.984924 203.126297,198.984924 206.419464,198.984924 
	C206.416489,199.224731 206.413498,199.464554 206.410522,199.704361 
	C200.461334,199.704361 194.512146,199.704361 188.562958,199.704361 
	C188.554337,199.464554 188.545715,199.224731 188.537094,198.984924 
	C190.885132,198.984924 193.233185,198.984924 196.060593,198.984924 
z"/>
<path fill="#E3E3E3" opacity="1.000000" stroke="none" 
	d="
M301.366730,388.054199 
	C302.524689,388.140228 303.042450,389.133331 302.714020,389.144012 
	C297.780121,389.304016 292.839447,389.254822 287.900360,389.254822 
	C287.911163,388.853149 287.921967,388.451477 287.932770,388.049805 
	C292.264709,388.049805 296.596680,388.049805 301.366730,388.054199 
z"/>
<path fill="#B0B0B0" opacity="1.000000" stroke="none" 
	d="
M284.046753,309.038635 
	C281.878784,309.038635 280.125977,309.038635 278.373138,309.038635 
	C278.361389,308.854462 278.349609,308.670319 278.337860,308.486145 
	C282.345184,308.486145 286.352509,308.486145 290.359833,308.486145 
	C290.375275,308.670319 290.390747,308.854462 290.406219,309.038635 
	C288.424774,309.038635 286.443329,309.038635 284.046753,309.038635 
z"/>
<path fill="#E3E3E3" opacity="1.000000" stroke="none" 
	d="
M257.439850,197.997284 
	C261.453064,198.005615 265.018799,198.005615 268.584564,198.005615 
	C268.583893,198.337463 268.583252,198.669296 268.582581,199.001144 
	C264.535858,199.001144 260.489075,199.008911 256.442505,198.984756 
	C256.154144,198.983032 255.607620,198.710388 255.619598,198.625916 
	C255.740921,197.770813 256.470825,198.086075 257.439850,197.997284 
z"/>
<path fill="#5D5D5D" opacity="1.000000" stroke="none" 
	d="
M365.658508,319.215057 
	C367.431854,320.078888 368.544495,321.613190 370.472107,322.174774 
	C368.451263,322.961578 366.582581,324.019836 365.155762,321.217896 
	C364.582977,320.227905 364.959076,319.787506 365.658508,319.215057 
z"/>
<path fill="#221616" opacity="1.000000" stroke="none" 
	d="
M223.297882,413.294800 
	C222.571777,411.870819 221.045883,410.216339 223.956635,410.133240 
	C225.784912,410.081055 227.242966,410.667664 225.595337,413.127228 
	C224.722015,413.642853 224.147278,413.705017 223.297882,413.294800 
z"/>
<path fill="#989898" opacity="1.000000" stroke="none" 
	d="
M214.297562,100.009918 
	C217.533539,100.024506 220.319489,100.024506 223.105423,100.024506 
	C223.111069,100.242081 223.116714,100.459656 223.122360,100.677231 
	C219.299301,100.677231 215.476242,100.677231 211.590851,100.677231 
	C212.061310,99.464272 213.084488,100.141312 214.297562,100.009918 
z"/>
<path fill="#D3D3D3" opacity="1.000000" stroke="none" 
	d="
M372.414734,316.171753 
	C371.826752,315.692383 371.562897,315.211487 371.169739,315.054596 
	C369.762207,314.492859 370.137756,318.598724 368.142059,316.303284 
	C367.607300,315.688232 367.914124,314.708221 369.026367,313.968842 
	C371.110809,312.583313 372.227356,313.015564 373.075226,315.565979 
	C372.988953,316.059296 372.834229,316.189117 372.414734,316.171753 
z"/>
<path fill="#989898" opacity="1.000000" stroke="none" 
	d="
M176.134308,100.971146 
	C174.392899,100.971489 173.091965,100.971489 171.791046,100.971489 
	C171.789658,100.759270 171.788269,100.547058 171.786865,100.334839 
	C175.332825,100.334839 178.878769,100.334839 182.424728,100.334839 
	C182.428131,100.546829 182.431534,100.758820 182.434937,100.970810 
	C180.481552,100.970810 178.528168,100.970810 176.134308,100.971146 
z"/>
<path fill="#F4F4F4" opacity="1.000000" stroke="none" 
	d="
M213.886658,416.008545 
	C214.692734,415.087158 213.966583,413.518951 216.232544,413.837982 
	C218.198517,414.114746 216.668198,415.739197 217.645508,416.135498 
	C216.527771,417.943481 214.906281,416.735352 213.501633,416.813538 
	C213.458527,416.815918 213.356400,416.613800 213.366241,416.515472 
	C213.381973,416.358276 213.468628,416.208130 213.886658,416.008545 
z"/>
<path fill="#F4F4F4" opacity="1.000000" stroke="none" 
	d="
M301.578918,326.002869 
	C301.015778,325.900574 300.770050,325.818756 300.764404,325.722839 
	C300.753387,325.535553 300.875183,325.173065 300.944458,325.172485 
	C304.146088,325.144806 307.348022,325.148438 310.556458,326.016998 
	C307.705902,326.016998 304.855377,326.016998 301.578918,326.002869 
z"/>
<path fill="#989898" opacity="1.000000" stroke="none" 
	d="
M243.960114,420.006226 
	C243.972763,418.618500 243.972763,417.641296 243.972763,416.664124 
	C244.148056,416.627319 244.323349,416.590515 244.498657,416.553711 
	C244.887711,417.916382 245.272568,419.280304 245.667114,420.641418 
	C245.999542,421.788269 246.199066,423.466461 244.852249,423.425079 
	C243.002853,423.368286 244.280212,421.456390 243.960114,420.006226 
z"/>
<path fill="#3C3C3C" opacity="1.000000" stroke="none" 
	d="
M361.691711,309.101990 
	C361.398163,310.324707 362.647186,311.417358 362.540100,312.675262 
	C362.521729,312.891327 361.397949,313.117828 360.775238,313.148987 
	C360.133118,313.181152 359.308105,313.021484 359.246887,312.239410 
	C359.127472,310.715363 360.275208,309.966003 361.691711,309.101990 
z"/>
<path fill="#5D5D5D" opacity="1.000000" stroke="none" 
	d="
M389.836456,343.876221 
	C389.728668,344.258911 389.463531,344.406250 389.348328,344.308044 
	C388.370758,342.439850 386.692017,340.585175 389.944244,338.968475 
	C389.944244,340.633331 389.944244,342.063446 389.836456,343.876221 
z"/>
<path fill="#F4F4F4" opacity="1.000000" stroke="none" 
	d="
M173.983521,322.115417 
	C173.140686,320.273438 171.393616,321.657166 170.468491,320.550354 
	C175.188782,319.676910 175.188782,319.676910 174.664230,325.475098 
	C173.427780,324.677490 174.280045,323.473267 173.983521,322.115417 
z"/>
<path fill="#D3D3D3" opacity="1.000000" stroke="none" 
	d="
M205.424911,344.031067 
	C202.919220,344.050232 200.822647,344.050232 198.726059,344.050232 
	C201.454834,342.668335 204.214035,342.720856 206.989578,343.320007 
	C207.077637,343.339020 207.137512,343.488647 207.210526,343.577362 
	C206.751678,343.722198 206.292847,343.867035 205.424911,344.031067 
z"/>
<path fill="#F4F4F4" opacity="1.000000" stroke="none" 
	d="
M449.586365,235.220383 
	C452.154663,237.026749 454.762177,235.551010 457.560242,236.052216 
	C454.953278,237.078171 451.871460,238.558228 449.586365,235.220383 
z"/>
<path fill="#D3D3D3" opacity="1.000000" stroke="none" 
	d="
M270.898376,238.193100 
	C270.413696,239.179596 270.118958,240.935410 269.177185,238.983475 
	C268.450897,237.478104 269.860992,236.387039 270.472260,235.122086 
	C271.481567,235.954926 270.893768,236.958832 270.898376,238.193100 
z"/>
<path fill="#230A0A" opacity="1.000000" stroke="none" 
	d="
M215.489227,251.017075 
	C216.461960,252.084885 217.114716,253.218964 217.910187,254.642975 
	C214.511017,254.340775 214.106949,253.801361 215.489227,251.017075 
z"/>
<path fill="#C6C6C6" opacity="1.000000" stroke="none" 
	d="
M237.412659,161.586273 
	C240.021332,161.110382 243.081146,161.055847 246.591278,161.409668 
	C243.982330,161.881226 240.923050,161.944427 237.412659,161.586273 
z"/>
<path fill="#989898" opacity="1.000000" stroke="none" 
	d="
M159.315765,304.940125 
	C156.474228,304.964935 154.038300,304.964935 151.602356,304.964935 
	C151.602295,304.665405 151.602234,304.365906 151.602173,304.066376 
	C154.190079,304.066376 156.778000,304.064880 159.365921,304.070007 
	C159.524963,304.070312 159.699905,304.089233 159.840240,304.156403 
	C160.618683,304.528931 160.078110,304.710785 159.315765,304.940125 
z"/>
<path fill="#3C3C3C" opacity="1.000000" stroke="none" 
	d="
M160.123871,301.091614 
	C158.470490,302.138306 158.470490,302.138306 153.226044,301.068329 
	C155.403412,301.068329 157.580780,301.068329 160.123871,301.091614 
z"/>
<path fill="#E5CFCF" opacity="1.000000" stroke="none" 
	d="
M258.811920,442.301270 
	C257.079010,444.324310 258.414429,446.358002 257.965149,448.579254 
	C255.878128,446.602936 257.403717,443.892822 257.331879,441.343536 
	C257.322266,441.001953 258.716003,440.676361 258.811920,442.301270 
z"/>
<path fill="#D3D3D3" opacity="1.000000" stroke="none" 
	d="
M271.406158,419.835266 
	C272.845245,417.925018 274.812866,419.544464 276.658325,419.216736 
	C275.099884,420.619934 273.375763,419.846039 271.406158,419.835266 
z"/>
<path fill="#C6C6C6" opacity="1.000000" stroke="none" 
	d="
M369.019714,181.593872 
	C369.114960,181.036774 369.199219,180.784775 369.286194,180.783875 
	C369.473145,180.781876 369.824890,180.907639 369.825623,180.983856 
	C369.853577,183.848526 369.849213,186.713516 369.010010,189.584564 
	C369.010010,187.060638 369.010010,184.536728 369.019714,181.593872 
z"/>
<path fill="#230A0A" opacity="1.000000" stroke="none" 
	d="
M236.961304,260.362762 
	C240.010223,260.115417 243.075150,260.077423 246.597595,260.095093 
	C247.055084,260.150726 247.033188,260.560211 247.030762,260.765198 
	C244.005295,262.062073 240.888535,261.275818 237.406418,261.210663 
	C236.994156,260.991699 236.977325,260.572113 236.961304,260.362762 
z"/>
<path fill="#221616" opacity="1.000000" stroke="none" 
	d="
M237.262115,261.297668 
	C240.034119,260.987946 243.074081,260.984161 246.571198,260.975311 
	C243.978104,262.918365 240.733231,261.948395 237.262115,261.297668 
z"/>
<path fill="#858585" opacity="1.000000" stroke="none" 
	d="
M245.421875,435.041870 
	C245.973694,435.129639 246.243118,435.235626 246.233322,435.297241 
	C246.201645,435.496643 246.069489,435.843903 245.972397,435.845093 
	C243.533188,435.875641 241.093521,435.869110 238.630661,435.039825 
	C240.757660,435.039825 242.884644,435.039825 245.421875,435.041870 
z"/>
<path fill="#D3D3D3" opacity="1.000000" stroke="none" 
	d="
M10.977678,282.884644 
	C12.595533,282.873779 13.297408,284.889801 15.231305,284.451263 
	C13.630301,284.433228 11.297356,286.936371 10.977678,282.884644 
z"/>
<path fill="#3C3C3C" opacity="1.000000" stroke="none" 
	d="
M360.641449,316.319702 
	C359.311401,317.583679 358.233185,317.249725 357.408966,315.857483 
	C357.001099,315.168457 357.115143,314.479980 357.842621,314.289978 
	C359.227081,313.928375 359.894104,315.022064 360.641449,316.319702 
z"/>
<path fill="#F4F4F4" opacity="1.000000" stroke="none" 
	d="
M372.070557,316.387878 
	C372.149902,316.024628 372.649506,316.005554 372.896606,315.967529 
	C374.574829,316.376984 373.500793,318.135406 374.617645,318.862213 
	C373.183624,318.862213 371.749634,318.862213 370.282715,318.862213 
	C370.435852,317.681030 372.305176,318.150238 372.070557,316.387878 
z"/>
<path fill="#858585" opacity="1.000000" stroke="none" 
	d="
M148.607239,277.303162 
	C147.776764,275.282593 147.654114,273.017731 148.805954,270.704163 
	C148.805954,272.823914 148.805954,274.943695 148.607239,277.303162 
z"/>
<path fill="#F4F4F4" opacity="1.000000" stroke="none" 
	d="
M273.788208,431.245728 
	C276.536285,431.023193 278.936218,431.023193 281.336151,431.023193 
	C278.706177,431.702026 276.088959,432.502777 273.788208,431.245728 
z"/>
<path fill="#B0B0B0" opacity="1.000000" stroke="none" 
	d="
M397.681793,260.716644 
	C398.077698,263.012573 398.535675,265.082916 396.950623,267.186768 
	C396.950623,265.374115 396.950623,263.561462 397.043335,261.348907 
	C397.257202,260.794312 397.378418,260.639587 397.681793,260.716644 
z"/>
<path fill="#E5CFCF" opacity="1.000000" stroke="none" 
	d="
M254.079071,41.373241 
	C256.659149,40.965733 259.402344,40.952225 262.601288,40.985603 
	C260.246460,42.809280 257.204346,41.808655 254.079071,41.373241 
z"/>
<path fill="#E3E3E3" opacity="1.000000" stroke="none" 
	d="
M223.047989,413.469971 
	C223.621857,413.075684 224.186447,413.041656 225.005859,413.141785 
	C225.854004,414.012909 226.447342,414.749817 227.737503,416.352203 
	C225.354935,415.532654 223.735504,415.668549 223.047989,413.469971 
z"/>
<path fill="#E3E3E3" opacity="1.000000" stroke="none" 
	d="
M200.532166,414.959473 
	C202.374619,414.952087 203.825150,414.952087 205.275681,414.952087 
	C203.352768,415.704193 201.579330,417.718170 199.429230,415.778717 
	C199.342300,415.700287 199.327682,415.372345 199.397324,415.321167 
	C199.614487,415.161591 199.888351,415.079193 200.532166,414.959473 
z"/>
<path fill="#230A0A" opacity="1.000000" stroke="none" 
	d="
M198.642426,181.096817 
	C198.987656,182.798355 199.152588,184.625916 197.242645,186.220535 
	C197.168671,184.852158 197.108994,183.748276 197.094330,182.279419 
	C197.568207,181.680542 197.997040,181.446640 198.642426,181.096817 
z"/>
<path fill="#C6C6C6" opacity="1.000000" stroke="none" 
	d="
M282.775208,416.017273 
	C283.993134,416.092651 284.786194,416.168335 285.579224,416.244019 
	C282.871552,417.100983 280.186157,417.227905 277.133087,416.628784 
	C279.045746,415.540222 280.738800,416.216461 282.775208,416.017273 
z"/>
<path fill="#D3D3D3" opacity="1.000000" stroke="none" 
	d="
M254.449615,422.011017 
	C252.266525,422.029236 250.485855,422.029236 248.705200,422.029236 
	C251.084702,420.663879 253.513321,420.827209 255.953369,421.303833 
	C256.061005,421.324829 256.144196,421.471008 256.238770,421.558868 
	C255.776535,421.703522 255.314301,421.848175 254.449615,422.011017 
z"/>
<path fill="#C6C6C6" opacity="1.000000" stroke="none" 
	d="
M228.046448,379.205627 
	C227.981476,380.531128 227.919800,381.490753 227.762451,383.939087 
	C227.157104,380.829987 225.109192,379.498871 226.856979,377.452026 
	C227.298386,376.935059 227.575851,376.291473 227.973953,377.377533 
	C228.134430,377.815399 228.032333,378.349487 228.046448,379.205627 
z"/>
<path fill="#E3E3E3" opacity="1.000000" stroke="none" 
	d="
M250.733688,424.728088 
	C253.117249,424.272522 255.833130,424.071014 258.549011,423.869476 
	C258.555817,424.240387 258.562653,424.611267 258.569458,424.982178 
	C256.068298,424.982178 253.567154,424.982178 250.733688,424.728088 
z"/>
<path fill="#221616" opacity="1.000000" stroke="none" 
	d="
M397.370789,361.266663 
	C396.254120,361.706635 395.227295,361.867279 395.463684,360.622162 
	C395.709259,359.328522 396.963470,358.708740 398.121735,359.369507 
	C399.268524,360.023712 398.344513,360.658020 397.370789,361.266663 
z"/>
<path fill="#B0B0B0" opacity="1.000000" stroke="none" 
	d="
M233.121307,429.930908 
	C231.867920,429.375366 230.568665,428.643066 231.249634,427.025299 
	C231.382599,426.709412 232.062149,426.623596 232.489609,426.431671 
	C232.672424,427.041473 232.855240,427.651276 233.024323,428.606964 
	C233.135391,429.182281 233.260178,429.411713 233.121307,429.930908 
z"/>
<path fill="#C6C6C6" opacity="1.000000" stroke="none" 
	d="
M177.852493,316.488403 
	C175.737335,316.845123 173.298828,316.967285 170.860306,317.089417 
	C170.841492,316.810883 170.822662,316.532318 170.803848,316.253784 
	C173.045609,316.253784 175.287384,316.253784 177.852493,316.488403 
z"/>
<path fill="#989898" opacity="1.000000" stroke="none" 
	d="
M388.072144,351.961548 
	C389.372711,350.695679 390.655762,350.599854 392.275421,351.478546 
	C390.857178,352.551056 389.693390,353.483459 388.072144,351.961548 
z"/>
<path fill="#F4F4F4" opacity="1.000000" stroke="none" 
	d="
M178.066986,316.817444 
	C180.324951,319.161133 178.182770,321.850189 178.854065,324.290344 
	C177.440796,322.201752 178.250381,319.879211 178.089172,317.196655 
	C178.175842,316.722992 178.083054,316.768372 178.066986,316.817444 
z"/>
<path fill="#D3D3D3" opacity="1.000000" stroke="none" 
	d="
M237.240051,424.484375 
	C236.155029,423.669434 234.948349,424.570435 234.141464,423.230957 
	C236.079193,423.230957 237.837921,423.230957 239.667099,423.230957 
	C239.323532,424.466675 238.807999,425.172394 237.240051,424.484375 
z"/>
<path fill="#B0B0B0" opacity="1.000000" stroke="none" 
	d="
M238.693665,433.293152 
	C240.721344,433.171204 242.458817,433.171204 244.196304,433.171204 
	C242.280670,434.100311 240.354752,434.356842 238.693665,433.293152 
z"/>
<path fill="#E3E3E3" opacity="1.000000" stroke="none" 
	d="
M356.911407,426.448425 
	C355.409546,425.201019 355.746185,423.259949 356.366364,421.576355 
	C356.628815,420.863861 357.567261,422.158875 358.490967,422.548340 
	C356.376251,422.970886 357.199524,424.810760 356.911407,426.448425 
z"/>
<path fill="#F4F4F4" opacity="1.000000" stroke="none" 
	d="
M206.238495,347.756012 
	C203.814575,347.983246 201.731552,347.983246 199.648529,347.983246 
	C201.960632,347.223480 204.250687,346.438019 206.238495,347.756012 
z"/>
<path fill="#C6C6C6" opacity="1.000000" stroke="none" 
	d="
M289.731323,391.322693 
	C292.268127,391.145294 294.558533,391.145294 296.848938,391.145294 
	C296.833466,391.435242 296.817993,391.725220 296.802521,392.015167 
	C294.800232,392.015167 292.797913,392.015167 290.386780,391.934937 
	C289.813538,391.736481 289.649200,391.618286 289.731323,391.322693 
z"/>
<path fill="#E5CFCF" opacity="1.000000" stroke="none" 
	d="
M53.317924,277.817261 
	C51.994259,278.044525 50.899212,278.077698 49.393772,278.126495 
	C48.870724,277.958374 48.758076,277.774597 48.839035,277.331787 
	C50.539516,277.237915 52.434692,274.217834 53.317924,277.817261 
z"/>
<path fill="#B0B0B0" opacity="1.000000" stroke="none" 
	d="
M277.582916,428.995911 
	C275.744415,429.006653 274.300812,429.006653 272.857178,429.006653 
	C274.891113,427.874847 276.959656,427.802002 279.055145,428.287323 
	C279.163422,428.312378 279.243134,428.460907 279.336182,428.551910 
	C278.883392,428.696350 278.430573,428.840759 277.582916,428.995911 
z"/>
<path fill="#5D5D5D" opacity="1.000000" stroke="none" 
	d="
M218.334000,431.660828 
	C219.949371,430.572662 221.825562,430.854431 223.760925,431.881989 
	C222.031601,431.881989 220.302292,431.881989 218.334000,431.660828 
z"/>
<path fill="#C6C6C6" opacity="1.000000" stroke="none" 
	d="
M265.999908,256.063232 
	C268.273712,257.119629 266.588562,258.889618 267.086517,261.175507 
	C265.779785,259.608734 266.058960,257.789154 264.317474,257.314423 
	C264.176331,257.028870 264.069244,256.987976 264.045898,257.040314 
	C264.418915,256.578949 265.025024,256.523621 265.827148,256.200958 
	C266.065369,256.025909 265.994476,256.028198 265.999908,256.063232 
z"/>
<path fill="#F4F4F4" opacity="1.000000" stroke="none" 
	d="
M450.622986,227.050262 
	C453.114777,227.803177 455.749237,225.679489 457.367310,228.103699 
	C454.874786,227.345856 452.333252,228.876923 450.622986,227.050262 
z"/>
<path fill="#E3E3E3" opacity="1.000000" stroke="none" 
	d="
M407.276062,154.984497 
	C406.669434,154.663971 404.660461,154.932755 406.274963,154.207291 
	C407.861450,153.494415 410.018707,154.051865 411.955292,154.987976 
	C410.525391,154.987976 409.095459,154.987976 407.276062,154.984497 
z"/>
<path fill="#858585" opacity="1.000000" stroke="none" 
	d="
M144.258316,247.219604 
	C142.859528,247.673996 141.139557,247.983994 139.419586,248.293991 
	C140.658752,246.350266 142.466492,247.603271 144.258316,247.219604 
z"/>
<path fill="#E3E3E3" opacity="1.000000" stroke="none" 
	d="
M375.016907,202.506027 
	C375.434906,200.181824 374.457306,198.163437 375.884796,195.326355 
	C375.884796,198.561249 375.889893,200.823898 375.871857,203.086365 
	C375.870789,203.219177 375.682800,203.350494 375.581848,203.482513 
	C375.392426,203.297211 375.203003,203.111877 375.016907,202.506027 
z"/>
<path fill="#989898" opacity="1.000000" stroke="none" 
	d="
M240.522980,251.935150 
	C242.365952,251.914459 243.816635,251.914459 245.267334,251.914459 
	C243.246994,253.292877 241.184555,253.287201 239.091461,252.728058 
	C238.969589,252.695496 238.878220,252.548721 238.772644,252.455109 
	C239.225342,252.288696 239.678040,252.122284 240.522980,251.935150 
z"/>
<path fill="#221616" opacity="1.000000" stroke="none" 
	d="
M246.955231,231.231384 
	C247.656067,231.798569 248.183441,232.646088 248.774963,233.793884 
	C248.131500,234.168381 248.004181,235.856705 247.036087,234.908997 
	C246.068024,233.961304 245.518860,232.741730 246.955231,231.231384 
z"/>
<path fill="#F4F4F4" opacity="1.000000" stroke="none" 
	d="
M365.582458,318.918701 
	C365.644775,319.490143 365.372528,319.914612 365.047485,320.609100 
	C363.705353,320.812714 363.762848,319.616180 364.053284,319.117371 
	C364.917267,317.633728 361.266846,318.379181 363.020996,317.101807 
	C364.115570,316.304779 365.095795,317.387390 365.582458,318.918701 
z"/>
<path fill="#E3E3E3" opacity="1.000000" stroke="none" 
	d="
M234.969971,175.429443 
	C235.211456,174.674728 235.334335,173.473541 235.600815,174.018417 
	C236.440292,175.735046 236.233704,177.688629 235.576645,179.627289 
	C234.607651,178.389954 235.122406,177.053894 234.969971,175.429443 
z"/>
<path fill="#F4F4F4" opacity="1.000000" stroke="none" 
	d="
M454.179474,254.477356 
	C456.044281,254.081894 458.075806,254.059586 460.541992,254.441467 
	C458.766479,254.847275 456.556335,254.848877 454.179474,254.477356 
z"/>
<path fill="#3C3C3C" opacity="1.000000" stroke="none" 
	d="
M226.693207,368.062866 
	C227.304932,369.654419 225.219025,370.204468 225.473679,371.821106 
	C225.194351,370.399536 224.516418,368.898010 226.693207,368.062866 
z"/>
<path fill="#5D5D5D" opacity="1.000000" stroke="none" 
	d="
M230.033447,382.881775 
	C229.760757,383.562500 229.645401,384.901825 229.353455,384.134216 
	C228.822281,382.737579 229.202637,380.994293 229.632553,379.379333 
	C229.763580,380.424347 229.894608,381.469330 230.033447,382.881775 
z"/>
<path fill="#E3E3E3" opacity="1.000000" stroke="none" 
	d="
M197.454193,163.139557 
	C197.028397,161.170898 196.343674,159.232422 198.530411,158.091217 
	C199.566956,159.426163 198.833435,160.904190 198.675827,162.680771 
	C198.313919,163.134857 198.061661,163.238907 197.454193,163.139557 
z"/>
<path fill="#F4F4F4" opacity="1.000000" stroke="none" 
	d="
M465.770569,250.553833 
	C463.886261,250.954834 461.885315,250.960693 459.458069,250.906555 
	C458.849548,250.733124 458.667419,250.619675 458.754120,250.329208 
	C461.233307,250.154373 463.443665,250.156540 465.770569,250.553833 
z"/>
<path fill="#B0B0B0" opacity="1.000000" stroke="none" 
	d="
M274.723999,350.847412 
	C274.907898,352.946106 274.907898,354.699677 274.907898,356.453217 
	C273.881897,354.487244 273.847504,352.504364 274.723999,350.847412 
z"/>
<path fill="#F4F4F4" opacity="1.000000" stroke="none" 
	d="
M229.246124,427.749390 
	C227.174164,427.969696 225.433838,427.969696 223.693527,427.969696 
	C225.645462,427.108917 227.593414,426.570190 229.246124,427.749390 
z"/>
<path fill="#C6C6C6" opacity="1.000000" stroke="none" 
	d="
M250.059509,250.827148 
	C247.767960,248.866287 249.546036,246.677841 249.944763,244.602325 
	C249.944763,246.404419 249.944763,248.206512 249.970200,250.412872 
	C249.995636,250.817123 250.076645,250.875504 250.059509,250.827148 
z"/>
<path fill="#989898" opacity="1.000000" stroke="none" 
	d="
M137.727844,244.242447 
	C139.801666,244.013016 141.545456,244.013016 143.289230,244.013016 
	C141.334839,244.913361 139.382187,245.343597 137.727844,244.242447 
z"/>
<path fill="#858585" opacity="1.000000" stroke="none" 
	d="
M205.523956,426.454895 
	C204.116486,426.253662 202.385971,428.209351 200.024155,426.805237 
	C201.885223,425.503448 203.597870,426.318237 205.523956,426.454895 
z"/>
<path fill="#989898" opacity="1.000000" stroke="none" 
	d="
M375.468201,241.274155 
	C377.309387,241.114883 378.862488,241.114883 381.704926,241.114883 
	C378.656586,242.247635 376.915771,242.404129 375.468201,241.274155 
z"/>
<path fill="#E5CFCF" opacity="1.000000" stroke="none" 
	d="
M113.931084,402.680695 
	C112.884583,400.751221 112.080902,398.550049 116.535889,399.078461 
	C116.551491,400.753143 112.820389,399.231018 113.931084,402.680695 
z"/>
<path fill="#858585" opacity="1.000000" stroke="none" 
	d="
M80.502213,263.751282 
	C81.955452,262.274017 83.701637,263.256042 85.462425,263.717072 
	C83.902679,263.815979 82.342934,263.914917 80.502213,263.751282 
z"/>
<path fill="#989898" opacity="1.000000" stroke="none" 
	d="
M346.964203,266.577209 
	C344.930054,266.958679 342.811157,266.958679 340.692230,266.958679 
	C340.681763,266.704346 340.671265,266.450043 340.660797,266.195709 
	C342.733673,266.195709 344.806580,266.195709 346.964203,266.577209 
z"/>
<path fill="#221616" opacity="1.000000" stroke="none" 
	d="
M267.858490,404.052490 
	C269.426819,404.014160 270.666931,404.014160 273.078369,404.014160 
	C270.588409,405.397766 269.094391,404.932251 267.660919,404.906403 
	C267.527344,404.904022 267.275726,404.741180 267.285065,404.691254 
	C267.323883,404.483124 267.441528,404.289673 267.858490,404.052490 
z"/>
<path fill="#C6C6C6" opacity="1.000000" stroke="none" 
	d="
M385.852417,409.241821 
	C385.021149,407.577576 384.070923,405.513702 386.115540,403.745850 
	C386.174438,405.625610 386.017578,407.234467 385.852417,409.241821 
z"/>
<path fill="#E3E3E3" opacity="1.000000" stroke="none" 
	d="
M381.176666,401.702271 
	C382.510376,403.151642 381.823334,405.261749 381.969971,407.650818 
	C379.938995,406.293365 381.340546,404.088959 381.176666,401.702271 
z"/>
<path fill="#E5CFCF" opacity="1.000000" stroke="none" 
	d="
M266.553345,445.187927 
	C266.937378,446.488403 267.104248,447.922089 267.022797,449.341583 
	C266.921082,451.113525 266.045166,450.416473 265.158478,449.445679 
	C266.735382,448.258331 265.521027,446.491577 266.553345,445.187927 
z"/>
<path fill="#B0B0B0" opacity="1.000000" stroke="none" 
	d="
M356.846344,273.112335 
	C353.894409,271.328827 356.784668,271.925659 357.031647,271.961670 
	C358.083954,272.115021 360.099915,271.354126 359.659271,273.374023 
	C359.395569,274.582825 358.103668,273.031158 356.846344,273.112335 
z"/>
<path fill="#221616" opacity="1.000000" stroke="none" 
	d="
M261.054138,222.761993 
	C259.699982,222.337601 259.075348,221.255753 258.769196,219.624481 
	C260.196106,219.875839 262.248108,219.977753 261.054138,222.761993 
z"/>
<path fill="#D3D3D3" opacity="1.000000" stroke="none" 
	d="
M365.513428,77.048599 
	C365.879211,77.503822 365.900757,77.901619 365.889832,78.596848 
	C364.522308,78.439613 363.187286,77.984940 360.873566,77.196953 
	C362.997711,77.095192 364.083466,77.043182 365.513428,77.048599 
z"/>
<path fill="#3C3C3C" opacity="1.000000" stroke="none" 
	d="
M372.672668,186.777008 
	C371.487213,185.311264 372.137543,183.623001 372.106049,181.181656 
	C373.435730,183.395340 372.945801,184.989761 372.672668,186.777008 
z"/>
<path fill="#E3E3E3" opacity="1.000000" stroke="none" 
	d="
M277.048279,386.051727 
	C275.198669,385.183838 276.164062,383.911804 276.245514,382.179993 
	C276.837555,383.771149 277.984283,384.586365 277.048279,386.051727 
z"/>
<path fill="#F4F4F4" opacity="1.000000" stroke="none" 
	d="
M457.773560,223.517273 
	C456.240448,223.906555 454.542053,223.952774 452.420837,223.952438 
	C453.656738,222.041412 455.720428,223.281967 457.773560,223.517273 
z"/>
<path fill="#858585" opacity="1.000000" stroke="none" 
	d="
M372.284424,237.893509 
	C373.437683,237.945908 374.240997,238.025970 375.743225,238.175674 
	C373.869324,239.428375 372.528625,239.176239 371.189087,238.871704 
	C371.043365,238.838577 370.928131,238.671524 370.798737,238.566589 
	C371.177307,238.351456 371.555878,238.136307 372.284424,237.893509 
z"/>
<path fill="#989898" opacity="1.000000" stroke="none" 
	d="
M195.425934,410.993042 
	C196.328217,408.933899 198.004700,410.541992 199.525803,410.761230 
	C198.288391,410.844788 197.050980,410.928375 195.425934,410.993042 
z"/>
<path fill="#E3E3E3" opacity="1.000000" stroke="none" 
	d="
M386.772766,236.045197 
	C385.232147,235.992432 384.084717,235.937622 382.937256,235.882812 
	C384.466248,234.999237 385.997681,234.569275 387.595032,235.392639 
	C387.624054,235.407608 387.593262,235.625977 387.533081,235.706787 
	C387.435730,235.837524 387.290771,235.932846 386.772766,236.045197 
z"/>
<path fill="#F4F4F4" opacity="1.000000" stroke="none" 
	d="
M253.535065,35.161453 
	C253.924454,36.746254 253.951889,38.481468 254.004730,40.649132 
	C251.990707,39.418827 253.257614,37.264988 253.535065,35.161453 
z"/>
<path fill="#D3D3D3" opacity="1.000000" stroke="none" 
	d="
M272.961243,407.019135 
	C271.629456,406.945740 270.691498,406.883209 268.448212,406.733612 
	C271.311279,405.961273 272.868011,405.695435 274.476105,406.286713 
	C274.554230,406.315399 274.581207,406.483185 274.631989,406.586182 
	C274.206360,406.734131 273.780731,406.882050 272.961243,407.019135 
z"/>
<path fill="#3C3C3C" opacity="1.000000" stroke="none" 
	d="
M262.839783,407.093292 
	C262.898071,404.778656 264.315918,406.276703 265.347961,406.373718 
	C264.814087,407.262177 263.903259,406.919830 262.839783,407.093292 
z"/>
<path fill="#E3E3E3" opacity="1.000000" stroke="none" 
	d="
M367.146790,235.023102 
	C367.868042,232.834137 369.386688,234.403351 370.758575,234.770096 
	C369.675049,234.861649 368.591492,234.953217 367.146790,235.023102 
z"/>
<path fill="#E3E3E3" opacity="1.000000" stroke="none" 
	d="
M463.934509,205.483612 
	C462.652069,204.824142 461.200714,204.862930 459.353699,204.962280 
	C460.713257,203.423950 462.386017,203.348373 463.934509,205.483612 
z"/>
<path fill="#E3E3E3" opacity="1.000000" stroke="none" 
	d="
M199.541656,35.130333 
	C199.952072,35.761124 200.032562,36.514545 200.041443,37.640030 
	C198.847427,38.012100 197.725006,38.012100 196.273270,38.012100 
	C197.165894,36.593864 199.503616,37.298550 199.541656,35.130333 
z"/>
<path fill="#F4F4F4" opacity="1.000000" stroke="none" 
	d="
M232.409149,420.995911 
	C233.322083,418.913452 234.998138,420.372375 236.943771,420.225464 
	C235.388412,421.399017 234.045593,420.841309 232.409149,420.995911 
z"/>
<path fill="#C6C6C6" opacity="1.000000" stroke="none" 
	d="
M273.235016,378.329956 
	C274.134430,378.934692 274.902222,379.827362 275.678345,380.729736 
	C273.659271,381.451599 272.495514,381.129578 273.235016,378.329956 
z"/>
<path fill="#E3E3E3" opacity="1.000000" stroke="none" 
	d="
M263.166382,390.369202 
	C263.124847,389.092743 263.210236,388.163605 263.295654,387.234436 
	C263.677521,387.452118 264.167389,387.583221 264.423004,387.902100 
	C265.669556,389.457397 264.467621,390.094727 263.166382,390.369202 
z"/>
<path fill="#5D5D5D" opacity="1.000000" stroke="none" 
	d="
M243.829437,171.346283 
	C242.807632,172.259781 241.542358,172.079559 240.226257,171.139526 
	C241.354691,171.139526 242.483124,171.139526 243.829437,171.346283 
z"/>
<path fill="#B0B0B0" opacity="1.000000" stroke="none" 
	d="
M272.026550,375.695190 
	C271.944916,376.383789 271.896637,376.709808 271.814087,377.026886 
	C271.781250,377.153137 271.672638,377.259644 271.598572,377.375153 
	C271.184204,376.048584 270.769867,374.722015 270.316162,373.269409 
	C272.317017,372.893280 271.975952,374.283020 272.026550,375.695190 
z"/>
<path fill="#E5CFCF" opacity="1.000000" stroke="none" 
	d="
M451.013794,209.364655 
	C452.619690,208.985001 454.393768,208.975266 456.610779,209.004776 
	C455.313080,211.116272 453.149139,209.589020 451.013794,209.364655 
z"/>
<path fill="#221616" opacity="1.000000" stroke="none" 
	d="
M258.813477,218.077164 
	C257.681213,218.207504 256.560852,218.093613 255.981995,216.574799 
	C258.020813,214.482712 258.039093,216.938965 258.813477,218.077164 
z"/>
<path fill="#E5CFCF" opacity="1.000000" stroke="none" 
	d="
M279.582245,33.075310 
	C279.811951,34.551285 279.681305,36.139107 279.424835,38.023571 
	C279.218597,36.610016 278.597382,34.907955 279.582245,33.075310 
z"/>
<path fill="#D3D3D3" opacity="1.000000" stroke="none" 
	d="
M144.993988,297.620422 
	C144.902985,298.153534 144.806763,298.390381 144.714432,298.388855 
	C144.513565,298.385529 144.142258,298.264496 144.140503,298.184937 
	C144.106140,296.636047 144.115005,295.086212 144.801590,293.481750 
	C144.864578,294.726501 144.927567,295.971283 144.993988,297.620422 
z"/>
<path fill="#E3E3E3" opacity="1.000000" stroke="none" 
	d="
M12.808256,287.999908 
	C13.528281,288.018402 13.871809,287.978577 14.142798,288.100281 
	C14.841046,288.413879 14.431128,288.924622 14.073490,288.944641 
	C12.521929,289.031464 10.962732,288.981873 9.078067,288.981873 
	C10.228801,287.426575 11.424592,288.315125 12.808256,287.999908 
z"/>
<path fill="#C6C6C6" opacity="1.000000" stroke="none" 
	d="
M110.011620,259.535828 
	C110.027504,260.826202 110.027504,261.731445 110.027504,263.583496 
	C108.496132,261.213837 108.948540,259.653809 109.289917,258.108582 
	C109.313721,258.000824 109.463959,257.920990 109.555405,257.828186 
	C109.702187,258.269043 109.848961,258.709900 110.011620,259.535828 
z"/>
<path fill="#E3E3E3" opacity="1.000000" stroke="none" 
	d="
M245.471283,444.876343 
	C244.398438,443.499817 243.070877,443.898956 241.467560,443.982361 
	C242.869308,442.972992 244.741425,441.367462 245.471283,444.876343 
z"/>
<path fill="#F4F4F4" opacity="1.000000" stroke="none" 
	d="
M397.912659,260.532562 
	C397.863983,260.948395 397.500061,261.007629 397.318054,260.978333 
	C397.147583,259.096497 396.519196,257.197296 397.506653,255.260590 
	C398.443726,256.915924 397.822083,258.550476 397.912659,260.532562 
z"/>
<path fill="#F4F4F4" opacity="1.000000" stroke="none" 
	d="
M270.924622,449.491516 
	C269.193756,448.433533 270.355316,446.492310 270.055542,444.408264 
	C271.941772,445.436615 270.603668,447.410828 270.924622,449.491516 
z"/>
<path fill="#E5CFCF" opacity="1.000000" stroke="none" 
	d="
M83.117645,121.431671 
	C84.703964,121.026329 86.432053,120.991470 88.589981,121.011673 
	C87.329742,123.113846 85.184044,121.592232 83.117645,121.431671 
z"/>
<path fill="#E3E3E3" opacity="1.000000" stroke="none" 
	d="
M104.276627,262.210022 
	C104.215904,261.025848 104.294495,260.103943 104.373093,259.182007 
	C105.772980,259.714783 106.212425,260.757721 105.904510,262.539703 
	C105.189301,263.360870 104.783066,262.980499 104.276627,262.210022 
z"/>
<path fill="#B0B0B0" opacity="1.000000" stroke="none" 
	d="
M48.685215,277.040741 
	C49.007450,277.250214 48.982250,277.427643 48.970211,277.873596 
	C48.067108,279.236633 46.820065,279.096985 45.233459,278.973328 
	C45.583755,277.456390 47.288368,277.834290 48.685215,277.040741 
z"/>
<path fill="#707070" opacity="1.000000" stroke="none" 
	d="
M86.265450,260.736603 
	C84.724419,260.947632 83.464539,260.947632 82.204659,260.947632 
	C83.664711,260.004791 85.102661,259.478729 86.265450,260.736603 
z"/>
<path fill="#707070" opacity="1.000000" stroke="none" 
	d="
M402.029907,154.945099 
	C400.899048,155.176559 400.087006,155.341415 399.274994,155.506271 
	C399.249512,155.194672 399.080444,154.770294 399.222076,154.589935 
	C400.088776,153.486237 401.251953,154.066971 402.320831,154.152145 
	C402.398621,154.158340 402.526459,154.334946 402.519958,154.424240 
	C402.508728,154.578995 402.410522,154.727432 402.029907,154.945099 
z"/>
<path fill="#B0B0B0" opacity="1.000000" stroke="none" 
	d="
M315.056671,275.225159 
	C315.009644,276.059509 314.948303,276.546356 314.886963,277.033234 
	C312.977173,276.642548 314.224304,275.220581 314.042938,274.287323 
	C313.969086,273.907318 314.350037,273.438934 314.524048,273.010742 
	C314.696808,273.633057 314.869568,274.255402 315.056671,275.225159 
z"/>
<path fill="#E5CFCF" opacity="1.000000" stroke="none" 
	d="
M458.627014,250.069946 
	C459.022980,250.152206 459.011230,250.499588 459.021484,250.673080 
	C457.332489,250.870224 455.633270,250.893875 453.506958,250.892883 
	C454.564911,249.217590 456.525421,250.348343 458.627014,250.069946 
z"/>
<path fill="#3C3C3C" opacity="1.000000" stroke="none" 
	d="
M151.722031,271.002686 
	C151.898621,272.530365 151.898621,273.768463 151.898621,275.006592 
	C151.050980,273.596069 150.631927,272.178833 151.722031,271.002686 
z"/>
<path fill="#E3E3E3" opacity="1.000000" stroke="none" 
	d="
M66.007263,327.631744 
	C64.411552,327.996826 62.636662,328.000824 60.419258,327.952087 
	C61.751686,326.056458 63.855797,327.276978 66.007263,327.631744 
z"/>
<path fill="#989898" opacity="1.000000" stroke="none" 
	d="
M104.061035,262.267059 
	C104.552010,262.216400 104.966705,262.485046 105.615509,262.832306 
	C106.084496,263.693054 106.117027,265.036682 105.575287,265.015350 
	C104.350533,264.967133 104.132309,263.672729 104.061035,262.267059 
z"/>
<path fill="#B0B0B0" opacity="1.000000" stroke="none" 
	d="
M261.890564,455.406921 
	C261.393829,454.164642 259.423431,452.347809 262.686188,451.658325 
	C261.508911,452.722809 262.165283,454.028839 261.890564,455.406921 
z"/>
<path fill="#D3D3D3" opacity="1.000000" stroke="none" 
	d="
M345.237305,268.698029 
	C343.120667,268.938263 341.244995,269.446777 339.344391,268.491577 
	C340.966949,267.603699 342.581329,268.100403 344.548370,268.052856 
	C345.145203,268.236694 345.330139,268.368652 345.237305,268.698029 
z"/>
<path fill="#B0B0B0" opacity="1.000000" stroke="none" 
	d="
M183.798645,329.996887 
	C184.608185,330.158203 185.793823,330.247620 185.240311,330.609772 
	C183.903107,331.484589 182.212479,331.019562 180.485687,330.735565 
	C181.360489,329.520416 182.499832,330.260529 183.798645,329.996887 
z"/>
<path fill="#E3E3E3" opacity="1.000000" stroke="none" 
	d="
M385.707275,336.392578 
	C385.010193,335.465698 384.929474,334.896057 385.612366,334.414520 
	C386.294220,333.933777 386.762634,334.249847 387.230591,334.827057 
	C388.205566,336.029846 386.844299,336.759552 386.703339,337.730133 
	C386.545532,337.680115 386.309509,337.677124 386.245605,337.570709 
	C386.094147,337.318604 386.024384,337.017456 385.707275,336.392578 
z"/>
<path fill="#989898" opacity="1.000000" stroke="none" 
	d="
M345.293060,268.978973 
	C344.959534,268.895447 345.044861,268.500183 345.002563,268.302429 
	C345.606995,267.941467 346.253723,267.778198 346.974701,267.286804 
	C347.048950,266.958679 347.000732,267.001099 346.977051,267.022491 
	C347.890167,267.087555 348.574066,267.623138 348.153870,268.481628 
	C347.672943,269.464203 346.515472,269.010254 345.293060,268.978973 
z"/>
<path fill="#5D5D5D" opacity="1.000000" stroke="none" 
	d="
M206.312729,426.862457 
	C205.914780,426.783997 205.908890,426.499878 205.911438,426.357910 
	C207.652237,426.013245 209.396423,425.716888 212.115738,426.940918 
	C209.618149,426.940918 208.164413,426.940918 206.312729,426.862457 
z"/>
<path fill="#B0B0B0" opacity="1.000000" stroke="none" 
	d="
M239.562897,446.003357 
	C238.740112,447.958801 237.098602,446.645569 235.428467,446.351135 
	C236.542542,446.037140 237.855011,445.995178 239.562897,446.003357 
z"/>
<path fill="#E5CFCF" opacity="1.000000" stroke="none" 
	d="
M81.921059,115.494217 
	C80.290863,114.691200 80.964874,113.210037 81.537918,111.535912 
	C81.832169,112.570801 81.907845,113.840591 81.921059,115.494217 
z"/>
<path fill="#E3E3E3" opacity="1.000000" stroke="none" 
	d="
M89.827492,111.069656 
	C90.091331,112.563309 89.937187,114.085014 89.440323,115.779572 
	C89.033356,114.323372 88.568581,112.668602 89.827492,111.069656 
z"/>
<path fill="#E3E3E3" opacity="1.000000" stroke="none" 
	d="
M352.627930,414.479187 
	C351.700745,415.313873 352.117889,416.393585 351.955933,417.664551 
	C350.685089,416.567993 349.785950,415.155426 352.627930,414.479187 
z"/>
<path fill="#F4F4F4" opacity="1.000000" stroke="none" 
	d="
M93.391098,115.904282 
	C93.018562,114.659256 93.002029,113.281464 93.014320,111.495514 
	C94.790596,112.421394 93.801819,114.166649 93.391098,115.904282 
z"/>
<path fill="#F4F4F4" opacity="1.000000" stroke="none" 
	d="
M264.958130,33.694633 
	C262.956024,33.015175 264.496521,31.213560 264.074646,29.426590 
	C265.881226,30.144617 264.619202,31.890165 264.958130,33.694633 
z"/>
<path fill="#E3E3E3" opacity="1.000000" stroke="none" 
	d="
M373.299255,175.796173 
	C374.420349,176.883011 373.944275,178.274063 373.910126,180.073059 
	C372.403992,178.611526 373.171082,177.290070 373.299255,175.796173 
z"/>
<path fill="#E3E3E3" opacity="1.000000" stroke="none" 
	d="
M87.497978,117.053009 
	C86.638405,118.860779 84.990479,117.910088 83.309769,117.431412 
	C84.476250,117.078201 85.790390,117.041321 87.497978,117.053009 
z"/>
<path fill="#E5CFCF" opacity="1.000000" stroke="none" 
	d="
M155.055054,437.378265 
	C156.345352,437.018494 157.770157,437.023834 159.623474,437.025452 
	C158.654388,438.766205 156.844131,437.730347 155.055054,437.378265 
z"/>
<path fill="#F4F4F4" opacity="1.000000" stroke="none" 
	d="
M71.914467,129.617020 
	C70.635674,129.977081 69.221016,129.977936 67.381393,129.975723 
	C68.331299,128.165878 70.133041,129.238586 71.914467,129.617020 
z"/>
<path fill="#F4F4F4" opacity="1.000000" stroke="none" 
	d="
M77.366882,139.949310 
	C77.011490,138.666946 77.014946,137.235596 77.020432,135.375275 
	C78.830513,136.336319 77.803764,138.137054 77.366882,139.949310 
z"/>
<path fill="#E3E3E3" opacity="1.000000" stroke="none" 
	d="
M59.439770,157.100998 
	C57.772060,158.947571 56.954304,158.264374 56.997536,155.457947 
	C58.531048,154.890839 57.636658,157.236206 59.439770,157.100998 
z"/>
<path fill="#221616" opacity="1.000000" stroke="none" 
	d="
M280.783813,419.013794 
	C280.031097,418.916504 279.574036,418.804352 279.116974,418.692230 
	C279.855896,417.508179 280.849396,417.949951 281.814941,418.285553 
	C281.884583,418.309723 281.944916,418.591309 281.927643,418.600586 
	C281.652832,418.748108 281.364624,418.870667 280.783813,419.013794 
z"/>
<path fill="#E3E3E3" opacity="1.000000" stroke="none" 
	d="
M399.440369,85.911110 
	C398.970673,85.124954 398.845093,84.211578 398.407654,83.147385 
	C398.148590,82.151154 398.760498,81.719688 399.336121,82.200745 
	C400.494354,83.168732 400.019623,84.533302 399.440369,85.911110 
z"/>
<path fill="#D3D3D3" opacity="1.000000" stroke="none" 
	d="
M232.840851,430.585754 
	C232.908478,430.012421 232.959351,429.804169 233.010406,429.274384 
	C233.804626,429.055115 234.598633,429.157349 235.392654,429.259613 
	C234.666687,430.093445 233.940720,430.927246 233.214752,431.761078 
	C233.119064,431.651093 232.994522,431.554565 232.935318,431.427551 
	C232.867844,431.282837 232.858627,431.110962 232.840851,430.585754 
z"/>
<path fill="#858585" opacity="1.000000" stroke="none" 
	d="
M197.005417,163.206177 
	C197.343826,162.947159 197.588669,162.958145 198.199844,162.999954 
	C198.875626,164.102463 198.465256,164.791733 197.438477,165.153549 
	C197.262939,164.594421 197.087387,164.035278 197.005417,163.206177 
z"/>
<path fill="#F4F4F4" opacity="1.000000" stroke="none" 
	d="
M247.442719,161.881683 
	C247.041595,161.818024 247.052322,161.500000 247.047119,161.340973 
	C248.473511,161.119354 249.905121,161.056732 251.336716,160.994110 
	C251.369919,161.311188 251.403137,161.628265 251.436340,161.945343 
	C250.238846,161.945343 249.041336,161.945343 247.442719,161.881683 
z"/>
<path fill="#F4F4F4" opacity="1.000000" stroke="none" 
	d="
M236.558014,161.102417 
	C236.961533,161.164902 236.969711,161.500000 236.965622,161.667542 
	C235.520752,161.900009 234.079971,161.964905 232.639191,162.029816 
	C232.604782,161.699860 232.570358,161.369888 232.535950,161.039932 
	C233.742126,161.039932 234.948318,161.039932 236.558014,161.102417 
z"/>
<path fill="#F4F4F4" opacity="1.000000" stroke="none" 
	d="
M65.416695,164.870865 
	C65.043678,163.580582 65.031174,162.167542 65.014946,160.328644 
	C66.829041,161.270889 65.802055,163.088699 65.416695,164.870865 
z"/>
<path fill="#E3E3E3" opacity="1.000000" stroke="none" 
	d="
M331.890625,41.581688 
	C330.596588,41.965069 329.169250,41.988827 327.312866,41.996307 
	C328.256958,40.110973 330.098236,41.252140 331.890625,41.581688 
z"/>
<path fill="#858585" opacity="1.000000" stroke="none" 
	d="
M107.994965,267.898682 
	C108.087517,266.916870 108.193062,266.279327 108.328712,265.459900 
	C109.286583,266.681244 109.356796,268.068085 108.777107,268.886292 
	C108.075867,269.876038 108.250122,268.531616 107.994965,267.898682 
z"/>
<path fill="#F4F4F4" opacity="1.000000" stroke="none" 
	d="
M341.358948,272.998413 
	C341.825592,270.962494 343.270813,272.274933 344.673401,272.209900 
	C343.818359,273.571259 342.656158,272.767334 341.358948,272.998413 
z"/>
<path fill="#989898" opacity="1.000000" stroke="none" 
	d="
M168.251053,315.121368 
	C167.916504,313.817871 167.614014,312.731537 168.610413,311.819672 
	C169.137405,313.065582 169.540405,314.244598 168.251053,315.121368 
z"/>
<path fill="#E5CFCF" opacity="1.000000" stroke="none" 
	d="
M461.357361,254.928345 
	C460.976654,254.845657 460.986481,254.501221 460.977112,254.329163 
	C462.343445,254.126312 463.719208,254.095505 465.510071,254.095459 
	C464.822571,255.808258 463.117737,254.640274 461.357361,254.928345 
z"/>
<path fill="#F4F4F4" opacity="1.000000" stroke="none" 
	d="
M277.316467,315.851166 
	C278.340332,316.910004 277.928558,318.261444 277.878510,320.010468 
	C276.465332,318.578674 277.203186,317.302612 277.316467,315.851166 
z"/>
<path fill="#707070" opacity="1.000000" stroke="none" 
	d="
M401.041077,255.730103 
	C401.087341,254.557526 401.138184,253.749191 401.189026,252.940842 
	C401.843536,254.079987 402.280487,255.221954 401.647430,256.459808 
	C401.623840,256.505951 401.417419,256.520569 401.356812,256.472839 
	C401.231445,256.374176 401.146973,256.223541 401.041077,255.730103 
z"/>
<path fill="#3C3C3C" opacity="1.000000" stroke="none" 
	d="
M394.763184,342.187317 
	C394.147186,343.010834 393.523132,343.017883 393.216400,342.271240 
	C393.065887,341.904694 393.209625,341.063843 393.452423,340.954865 
	C394.209167,340.615112 394.495636,341.322418 394.763184,342.187317 
z"/>
<path fill="#E5CFCF" opacity="1.000000" stroke="none" 
	d="
M430.861725,340.618225 
	C429.579559,341.012909 428.231903,341.023590 426.481506,341.012329 
	C427.389923,339.107941 429.182831,340.231079 430.861725,340.618225 
z"/>
<path fill="#E3E3E3" opacity="1.000000" stroke="none" 
	d="
M435.820404,343.571777 
	C434.297699,343.885895 432.683380,343.821106 431.057434,343.342346 
	C432.606781,343.016571 434.167786,343.104736 435.820404,343.571777 
z"/>
<path fill="#989898" opacity="1.000000" stroke="none" 
	d="
M260.982788,398.831512 
	C261.042969,397.834167 261.110931,397.201416 261.210876,396.270966 
	C262.462067,397.627441 261.982056,398.860992 261.813080,400.048248 
	C261.792480,400.193054 261.627594,400.317322 261.529602,400.451111 
	C261.349945,400.032776 261.170258,399.614410 260.982788,398.831512 
z"/>
<path fill="#E5CFCF" opacity="1.000000" stroke="none" 
	d="
M278.577545,40.083763 
	C279.302002,41.023617 278.533386,42.306057 279.720703,43.540131 
	C276.440948,43.918766 278.371216,41.593666 278.577545,40.083763 
z"/>
<path fill="#E3E3E3" opacity="1.000000" stroke="none" 
	d="
M289.560486,391.079132 
	C289.977722,391.145294 289.996948,391.500000 289.987427,391.677368 
	C288.420837,391.854706 286.863770,391.854706 285.001465,391.854706 
	C286.411713,389.962738 287.899200,391.391998 289.560486,391.079132 
z"/>
<path fill="#E5CFCF" opacity="1.000000" stroke="none" 
	d="
M78.783829,350.545471 
	C77.540337,350.944397 76.158592,350.996521 74.363541,351.004578 
	C75.237350,348.993469 77.082863,350.467407 78.783829,350.545471 
z"/>
<path fill="#858585" opacity="1.000000" stroke="none" 
	d="
M462.457428,232.046097 
	C461.687439,233.328156 460.323425,233.092560 458.939819,232.747314 
	C459.152130,232.463959 459.364441,232.180603 459.879669,231.848831 
	C460.832245,231.877243 461.481903,231.954071 462.457428,232.046097 
z"/>
<path fill="#221616" opacity="1.000000" stroke="none" 
	d="
M238.992767,219.138916 
	C239.396957,219.244522 239.521973,219.408813 239.792450,219.649902 
	C239.838348,220.438812 240.237869,221.659698 238.886810,221.178482 
	C238.070007,220.887604 237.905594,219.967102 238.992767,219.138916 
z"/>
<path fill="#5D5D5D" opacity="1.000000" stroke="none" 
	d="
M362.019836,309.008667 
	C362.949249,307.147064 364.279602,307.874298 365.748077,308.290802 
	C364.900970,309.732788 363.706207,308.883514 362.374268,309.016998 
	C361.984161,308.940552 361.987213,309.005951 362.019836,309.008667 
z"/>
<path fill="#E5CFCF" opacity="1.000000" stroke="none" 
	d="
M205.421814,441.919983 
	C204.942551,440.980469 204.832779,439.913635 204.673309,438.442932 
	C207.000000,438.672089 205.787704,440.421509 205.421814,441.919983 
z"/>
<path fill="#C6C6C6" opacity="1.000000" stroke="none" 
	d="
M283.159729,386.149139 
	C284.150574,386.106445 285.100861,385.537994 285.314545,386.718231 
	C285.360840,386.973907 285.135803,387.481567 284.932312,387.545868 
	C283.807007,387.901489 283.358276,387.011383 283.159729,386.149139 
z"/>
<path fill="#221616" opacity="1.000000" stroke="none" 
	d="
M243.265869,225.971405 
	C243.964890,226.086563 244.546921,226.581360 245.243042,227.350250 
	C244.228180,227.881195 243.234543,227.903427 243.265869,225.971405 
z"/>
<path fill="#B0B0B0" opacity="1.000000" stroke="none" 
	d="
M135.177612,251.097717 
	C133.990738,250.995163 133.222290,250.852249 131.309723,250.496552 
	C133.580414,250.397659 135.040833,248.309616 135.177612,251.097717 
z"/>
<path fill="#E3E3E3" opacity="1.000000" stroke="none" 
	d="
M214.376266,427.589600 
	C213.745209,426.706909 213.472031,425.984131 213.198853,425.261322 
	C213.802917,425.249023 214.639618,424.979218 214.966064,425.274170 
	C215.836441,426.060577 214.805130,426.905426 214.376266,427.589600 
z"/>
<path fill="#989898" opacity="1.000000" stroke="none" 
	d="
M264.615173,399.360992 
	C263.813202,398.628754 263.814545,397.713745 264.405609,396.912537 
	C264.508484,396.773132 265.204498,397.071259 265.626526,397.167267 
	C265.393982,397.845337 265.161438,398.523376 264.615173,399.360992 
z"/>
<path fill="#B0B0B0" opacity="1.000000" stroke="none" 
	d="
M139.421600,253.978043 
	C138.993210,253.739685 138.713608,253.428818 138.433990,253.117950 
	C139.154694,252.887131 139.308487,253.474335 139.421600,253.978043 
z"/>
<path fill="#E3E3E3" opacity="1.000000" stroke="none" 
	d="
M392.253601,359.555145 
	C392.156372,358.702087 392.292023,358.105896 392.427673,357.509674 
	C393.351349,358.254028 393.190277,359.026062 392.253601,359.555145 
z"/>
<path fill="#230A0A" opacity="1.000000" stroke="none" 
	d="
M218.058136,255.236755 
	C218.349243,254.996399 218.593277,255.122925 218.911652,255.492630 
	C218.886185,256.098236 218.699203,256.916687 218.620438,256.906403 
	C217.737503,256.791107 218.176575,256.033630 218.058136,255.236755 
z"/>
<path fill="#B0B0B0" opacity="1.000000" stroke="none" 
	d="
M446.296539,165.730469 
	C446.178192,166.618301 445.773163,167.291855 445.082947,166.733643 
	C444.290283,166.092560 444.977478,165.327682 445.585266,164.466705 
	C445.977478,164.679901 446.066956,165.070831 446.296539,165.730469 
z"/>
<path fill="#858585" opacity="1.000000" stroke="none" 
	d="
M353.113037,270.952179 
	C354.188324,271.801941 353.568878,272.027954 352.931702,272.030548 
	C352.518311,272.032227 352.103638,271.719910 351.689545,271.548279 
	C352.052032,271.332428 352.414490,271.116577 353.113037,270.952179 
z"/>
<path fill="#B0B0B0" opacity="1.000000" stroke="none" 
	d="
M141.872879,256.961090 
	C141.863327,256.876038 141.700180,256.627350 141.537033,256.378662 
	C141.591278,256.354126 141.645508,256.329590 141.699738,256.305054 
	C141.706253,256.469177 141.712769,256.633331 141.872879,256.961090 
z"/>
<path fill="#811412" opacity="1.000000" stroke="none" 
	d="
M39.978867,291.975647 
	C39.751698,292.587433 39.401833,292.982574 38.722656,292.628204 
	C38.919540,292.354218 39.116425,292.080200 39.558212,291.777802 
	C39.803120,291.749390 39.918739,291.901459 39.978867,291.975647 
z"/>
<path fill="#E3E3E3" opacity="1.000000" stroke="none" 
	d="
M274.493469,386.494446 
	C274.512573,386.495239 274.474335,386.493622 274.493469,386.494446 
z"/>
<path fill="#5D5D5D" opacity="1.000000" stroke="none" 
	d="
M366.767761,310.624084 
	C366.502869,310.614319 366.444092,310.411255 366.385315,310.208160 
	C366.581512,310.282379 366.777710,310.356567 366.767761,310.624084 
z"/>
<path fill="#221616" opacity="1.000000" stroke="none" 
	d="
M389.403076,336.374146 
	C389.604645,336.357697 389.674683,336.444244 389.744690,336.530792 
	C389.586975,336.512909 389.429260,336.495056 389.403076,336.374146 
z"/>
<path fill="#221616" opacity="1.000000" stroke="none" 
	d="
M267.029236,233.894775 
	C266.800507,233.951843 266.721405,233.625793 266.663330,233.471207 
	C266.956848,233.322372 267.674286,232.869934 267.029236,233.894775 
z"/>
<path fill="#B0B0B0" opacity="1.000000" stroke="none" 
	d="
M141.995209,257.058746 
	C141.985077,257.037415 142.108856,257.194366 142.108856,257.194366 
	C142.108856,257.194366 142.071259,256.951447 142.048859,257.038086 
	C142.026474,257.124725 142.005356,257.080078 141.995209,257.058746 
z"/>
<path fill="#5D5D5D" opacity="1.000000" stroke="none" 
	d="
M384.957489,344.174316 
	C385.205566,344.270813 385.183655,344.719574 385.038940,344.891449 
	C384.364471,344.822632 383.959625,344.558502 384.957489,344.174316 
z"/>
<path fill="#230A0A" opacity="1.000000" stroke="none" 
	d="
M228.238953,259.862366 
	C228.275803,259.638641 228.603806,259.749695 228.772308,259.784332 
	C228.778152,260.139160 228.769073,260.884186 228.238953,259.862366 
z"/>
<path fill="#989898" opacity="1.000000" stroke="none" 
	d="
M350.479370,269.510468 
	C350.450226,269.510101 350.508514,269.510834 350.479370,269.510468 
z"/>
<path fill="#010000" opacity="1.000000" stroke="none" 
	d="
M265.734558,255.963287 
	C265.595367,256.393921 265.125336,256.761932 264.338928,257.111298 
	C264.131927,256.288574 264.706177,256.023193 265.734558,255.963287 
z"/>
<path fill="#060202" opacity="1.000000" stroke="none" 
	d="
M286.840271,300.948547 
	C276.340088,300.949127 276.456024,300.964386 277.816681,290.615173 
	C279.974487,274.202606 281.957092,257.766968 284.031158,241.343292 
	C284.085022,240.916794 284.339447,240.515610 284.620148,239.795074 
	C287.054626,259.012665 289.387268,277.895294 291.883820,296.756287 
	C292.412048,300.746857 290.417908,301.282288 286.840271,300.948547 
z"/>
<path fill="#010000" opacity="1.000000" stroke="none" 
	d="
M331.504822,45.729649 
	C332.351044,46.742939 333.386139,47.751541 333.194336,48.393673 
	C332.866180,49.492249 331.350555,49.172089 330.667908,48.761063 
	C327.627747,46.930523 327.889191,50.581009 326.342682,51.237720 
	C325.829315,49.563328 325.722351,47.971676 327.023560,46.171078 
	C328.474152,45.277130 329.818268,45.568451 331.504822,45.729649 
z"/>
<path fill="#010000" opacity="1.000000" stroke="none" 
	d="
M330.177338,53.680573 
	C329.361145,53.660572 328.811615,53.479229 328.262085,53.297882 
	C328.440826,52.949551 328.559326,52.357975 328.808990,52.296131 
	C329.752808,52.062363 330.185455,52.720188 330.177338,53.680573 
z"/>
<path fill="#E5CFCF" opacity="1.000000" stroke="none" 
	d="
M331.720215,45.589920 
	C330.564789,45.917244 329.261627,45.935287 327.573456,45.893021 
	C328.492004,44.395782 330.040405,44.903160 331.720215,45.589920 
z"/>
<path fill="#010000" opacity="1.000000" stroke="none" 
	d="
M443.823181,324.808594 
	C445.244812,323.965240 445.877350,324.352600 445.876678,325.642426 
	C445.876312,326.367371 445.376526,326.788391 444.665253,326.802338 
	C443.377533,326.827576 442.939636,326.259705 443.823181,324.808594 
z"/>
<path fill="#010000" opacity="1.000000" stroke="none" 
	d="
M66.423187,140.309631 
	C65.937134,134.753967 67.522110,132.602341 70.742966,133.936478 
	C72.619118,134.713593 74.446220,135.929214 73.761505,138.307861 
	C73.140129,140.466415 71.751556,142.044922 69.038887,141.082703 
	C68.278755,140.813080 67.434990,140.779236 66.423187,140.309631 
z"/>
<path fill="#010000" opacity="1.000000" stroke="none" 
	d="
M157.113510,431.689697 
	C157.683411,432.489624 159.050781,433.027344 157.909729,433.686859 
	C157.062454,434.176636 155.521317,434.449280 155.164032,432.806610 
	C154.890350,431.548340 155.547043,430.984436 157.113510,431.689697 
z"/>
<path fill="#010000" opacity="1.000000" stroke="none" 
	d="
M160.173859,426.733002 
	C160.656967,427.559662 162.131561,428.084412 160.959747,428.750549 
	C159.754135,429.435913 158.631454,428.503021 158.387070,427.294312 
	C158.134094,426.043121 159.070999,426.123993 160.173859,426.733002 
z"/>
<path fill="#010000" opacity="1.000000" stroke="none" 
	d="
M46.588585,186.614136 
	C44.446213,186.453903 44.956028,185.223404 45.445988,184.248566 
	C45.838554,183.467529 46.610043,183.197144 47.353951,184.042831 
	C48.248112,185.059326 47.650173,185.777237 46.588585,186.614136 
z"/>
<path fill="#010000" opacity="1.000000" stroke="none" 
	d="
M52.472374,188.592789 
	C50.426243,188.303558 50.932663,187.177643 51.505249,186.146088 
	C51.838596,185.545517 52.469666,185.205566 53.095707,185.807663 
	C54.127247,186.799683 52.865093,187.548737 52.472374,188.592789 
z"/>
<path fill="#010000" opacity="1.000000" stroke="none" 
	d="
M111.160530,395.904785 
	C111.703148,392.975250 112.841797,394.530029 113.734894,395.257355 
	C114.319733,395.733612 115.041718,396.422821 114.129814,397.220581 
	C112.652023,398.513367 111.853043,397.507721 111.160530,395.904785 
z"/>
<path fill="#010000" opacity="1.000000" stroke="none" 
	d="
M109.457977,400.687744 
	C107.746376,402.196869 107.462288,400.871124 107.182861,399.797577 
	C107.088470,399.434906 107.396973,398.967407 107.521362,398.547821 
	C108.501740,398.851562 109.144928,399.526917 109.457977,400.687744 
z"/>
<path fill="#010000" opacity="1.000000" stroke="none" 
	d="
M65.294945,331.660583 
	C66.918678,333.383789 66.606079,334.930573 64.973930,335.796509 
	C63.319004,336.674591 60.766518,338.052338 59.751019,337.408112 
	C58.377476,336.536804 58.122112,333.951447 60.832268,332.502777 
	C62.136105,330.958038 63.595047,331.718628 65.294945,331.660583 
z"/>
<path fill="#E3E3E3" opacity="1.000000" stroke="none" 
	d="
M65.440826,331.536072 
	C64.387970,331.864563 63.085205,331.948883 61.393654,332.108337 
	C62.012596,330.066345 63.693359,331.109222 65.440826,331.536072 
z"/>
<path fill="#010000" opacity="1.000000" stroke="none" 
	d="
M429.331207,345.809937 
	C428.822845,346.714447 428.961487,347.916992 427.779938,347.623169 
	C427.057800,347.443604 426.959961,346.654510 427.176636,346.044922 
	C427.625305,344.782837 428.510468,344.927124 429.331207,345.809937 
z"/>
<path fill="#010000" opacity="1.000000" stroke="none" 
	d="
M434.287323,349.501770 
	C433.796478,350.402191 433.395111,350.963226 432.698975,350.594727 
	C431.882416,350.162415 432.117371,349.303314 432.133362,348.219757 
	C433.472626,347.289886 434.224854,347.715149 434.287323,349.501770 
z"/>
<path fill="#E5CFCF" opacity="1.000000" stroke="none" 
	d="
M434.439392,349.721802 
	C433.984222,349.040405 434.052917,348.045380 432.489044,347.909973 
	C432.814667,346.924072 433.728424,346.590546 434.632416,347.290985 
	C435.379028,347.869507 434.964020,348.785370 434.439392,349.721802 
z"/>
<path fill="#010000" opacity="1.000000" stroke="none" 
	d="
M61.277199,162.023117 
	C62.282528,163.667175 61.302959,164.328705 60.251007,164.712463 
	C59.564697,164.962814 59.054058,164.308945 59.105431,163.620422 
	C59.188763,162.503571 59.433304,161.392014 61.277199,162.023117 
z"/>
<path fill="#010000" opacity="1.000000" stroke="none" 
	d="
M53.643082,159.675705 
	C56.041050,158.835236 56.094574,160.045105 55.264072,161.916672 
	C53.269436,162.292175 53.626064,161.017426 53.643082,159.675705 
z"/>
<path fill="#E5CFCF" opacity="1.000000" stroke="none" 
	d="
M53.530506,159.529739 
	C53.955078,160.149567 54.162857,160.998962 54.676636,161.988129 
	C54.742352,162.888916 54.040592,163.121399 53.570568,162.722733 
	C52.607418,161.905838 52.830441,160.801483 53.530506,159.529739 
z"/>
<path fill="#E3E3E3" opacity="1.000000" stroke="none" 
	d="
M257.286011,37.569008 
	C257.039398,33.673370 259.255707,35.247803 261.266541,35.319740 
	C260.391754,37.211205 259.118134,37.795788 257.286011,37.569008 
z"/>
<path fill="#989898" opacity="1.000000" stroke="none" 
	d="
M258.594604,31.582935 
	C256.951843,31.575853 256.789307,30.765499 257.429962,29.817801 
	C257.883453,29.147005 258.726959,28.772930 259.419067,29.489204 
	C260.189117,30.286217 259.378937,30.854706 258.594604,31.582935 
z"/>
<path fill="#B0B0B0" opacity="1.000000" stroke="none" 
	d="
M44.791138,211.715805 
	C44.315338,212.558777 43.771206,212.832504 43.270466,212.226578 
	C43.076950,211.992386 43.178261,211.514526 43.145252,211.147705 
	C43.697830,211.216995 44.250408,211.286285 44.791138,211.715805 
z"/>
<path fill="#3C3C3C" opacity="1.000000" stroke="none" 
	d="
M283.348083,298.013000 
	C285.154541,298.012146 286.576477,298.012146 287.998413,298.012146 
	C287.999298,298.246552 288.000183,298.480957 288.001068,298.715363 
	C285.708160,298.715363 283.415253,298.715363 281.103790,298.715363 
	C281.103790,298.546326 281.065186,298.415161 281.111481,298.368713 
	C281.222839,298.257080 281.366913,298.125061 281.510376,298.108215 
	C281.991791,298.051483 282.478760,298.041595 283.348083,298.013000 
z"/>
</svg>